<svg width="705" height="556" viewBox="0 0 705 556" fill="none" xmlns="http://www.w3.org/2000/svg">
<path opacity="0.1" d="M409.448 77.7173C364.298 76.1546 321.296 61.5741 280.233 45.6262C239.17 29.6783 198.498 12.0143 154.429 3.56597C126.084 -1.86859 93.6651 -2.64296 70.8316 12.5375C48.8492 27.1878 41.7473 52.4072 37.9313 75.8267C35.057 93.4489 33.3688 111.999 41.2381 128.498C46.7075 139.953 56.4046 149.58 63.1158 160.554C86.4656 198.729 69.9596 245.805 44.6634 283.079C32.8037 300.562 19.0255 317.263 9.86554 335.855C0.705626 354.447 -3.529 375.823 4.48679 394.84C12.4258 413.676 31.3526 427.796 51.856 437.737C93.4977 457.934 142.548 463.71 190.413 466.989C296.334 474.231 402.814 471.098 509.014 467.952C548.319 466.794 587.791 465.615 626.454 459.538C647.927 456.162 670.091 450.804 685.683 437.87C705.468 421.455 710.372 393.661 697.11 373.081C674.87 338.548 613.394 329.974 597.83 292.923C589.277 272.524 598.06 249.809 610.499 230.896C637.176 190.315 681.888 154.715 684.239 108.336C685.857 76.4825 664.363 44.5798 631.128 29.5039C596.295 13.7026 547.984 15.6908 522.297 41.8451C495.822 68.7458 449.318 79.1056 409.448 77.7173Z" fill="#6C63FF"/>
<path d="M348.77 112.39C348.77 112.39 310.77 110.1 315.21 136.76C315.21 136.76 314.32 141.47 318.59 143.61C318.59 143.61 318.66 141.61 322.49 142.3C323.854 142.53 325.24 142.597 326.62 142.5C328.49 142.375 330.267 141.641 331.68 140.41V140.41C331.68 140.41 342.37 136 346.53 118.52C346.53 118.52 349.61 114.7 349.53 113.72L343.11 116.47C343.11 116.47 345.3 121.1 343.57 124.95C343.57 124.95 343.37 116.64 342.13 116.83C341.88 116.83 338.8 118.44 338.8 118.44C338.8 118.44 342.57 126.5 339.72 132.37C339.72 132.37 340.8 122.43 337.62 119.02L333.1 121.66C333.1 121.66 337.51 129.99 334.52 136.79C334.52 136.79 335.29 126.36 332.15 122.3L328.05 125.49C328.05 125.49 332.2 133.71 329.67 139.35C329.67 139.35 329.34 127.21 327.16 126.29C327.16 126.29 323.58 129.45 323.04 130.75C323.04 130.75 325.87 136.75 324.11 139.86C324.11 139.86 323.03 131.77 322.11 131.73C322.11 131.73 318.54 137.09 318.17 140.73C318.343 137.337 319.401 134.047 321.24 131.19C319.182 131.579 317.284 132.563 315.78 134.02C315.78 134.02 316.33 130.23 322.12 129.9C322.12 129.9 325.12 125.83 325.86 125.58C325.86 125.58 320.1 125.1 316.61 126.65C316.61 126.65 319.68 123.08 326.92 124.65L330.92 121.35C330.92 121.35 323.34 120.35 320.12 121.46C320.12 121.46 323.82 118.3 332.01 120.6L336.41 117.97C336.41 117.97 329.95 116.57 326.1 117.08C326.1 117.08 330.16 114.89 337.7 117.26L340.85 115.85C340.85 115.85 336.11 114.92 334.73 114.77C333.35 114.62 333.27 114.24 333.27 114.24C336.269 113.741 339.347 114.087 342.16 115.24C342.16 115.24 348.91 112.81 348.77 112.39Z" fill="#6C63FF"/>
<path opacity="0.1" d="M464.23 245.73C464.23 245.73 426.23 243.44 430.67 270.1C430.67 270.1 429.78 274.81 434.05 276.95C434.05 276.95 434.12 274.95 437.96 275.64C439.324 275.87 440.71 275.937 442.09 275.84C443.938 275.706 445.692 274.976 447.09 273.76V273.76C447.09 273.76 457.79 269.34 461.95 251.86C461.95 251.86 465.02 248.05 464.9 247.07L458.48 249.81C458.48 249.81 460.67 254.44 458.95 258.29C458.95 258.29 458.74 249.98 457.51 250.17C457.26 250.17 454.17 251.78 454.17 251.78C454.17 251.78 457.95 259.85 455.1 265.71C455.1 265.71 456.18 255.77 452.99 252.36L448.52 254.97C448.52 254.97 452.93 263.3 449.94 270.1C449.94 270.1 450.71 259.67 447.57 255.61L443.48 258.81C443.48 258.81 447.62 267.02 445.1 272.66C445.1 272.66 444.77 260.52 442.59 259.6C442.59 259.6 439.01 262.76 438.46 264.06C438.46 264.06 441.3 270.06 439.54 273.17C439.54 273.17 438.46 265.08 437.54 265.04C437.54 265.04 433.97 270.4 433.6 274.04C433.779 270.646 434.84 267.358 436.68 264.5C434.62 264.89 432.719 265.874 431.21 267.33C431.21 267.33 431.77 263.54 437.56 263.21C437.56 263.21 440.51 259.14 441.3 258.89C441.3 258.89 435.54 258.41 432.05 259.96C432.05 259.96 435.12 256.39 442.35 258.01L446.35 254.71C446.35 254.71 438.76 253.71 435.55 254.82C435.55 254.82 439.25 251.66 447.44 253.96L451.84 251.33C451.84 251.33 445.37 249.94 441.52 250.44C441.52 250.44 445.59 248.25 453.13 250.62L456.28 249.21C456.28 249.21 451.54 248.28 450.15 248.13C448.76 247.98 448.69 247.6 448.69 247.6C451.692 247.101 454.774 247.447 457.59 248.6C457.59 248.6 464.35 246.15 464.23 245.73Z" fill="#6C63FF"/>
<path opacity="0.1" d="M233.38 222.06C233.38 222.06 242.13 184.97 215.09 184.84C215.09 184.84 210.6 183.16 207.77 187C207.77 187 209.7 187.41 208.39 191.07C207.937 192.364 207.635 193.706 207.49 195.07C207.296 196.929 207.714 198.8 208.68 200.4V200.4C208.68 200.4 211.21 211.7 227.68 218.78C227.68 218.78 230.92 222.46 231.9 222.5L230.3 215.71C230.3 215.71 225.36 217.08 221.86 214.71C221.86 214.71 230.09 215.92 230.1 214.71C230.1 214.46 229.1 211.15 229.1 211.15C229.1 211.15 220.51 213.49 215.21 209.68C215.21 209.68 224.82 212.44 228.73 209.89L226.93 204.97C226.93 204.97 217.93 207.9 211.77 203.79C211.77 203.79 221.92 206.33 226.46 203.93L224.01 199.35C224.01 199.35 215.21 202.03 210.08 198.58C210.08 198.58 222.08 200.32 223.38 198.34C223.38 198.34 220.88 194.27 219.69 193.51C219.69 193.51 213.33 195.29 210.53 193.02C210.53 193.02 218.68 193.33 218.87 192.47C218.87 192.47 214.2 188.04 210.64 187.04C213.958 187.795 217.021 189.401 219.53 191.7C219.493 189.604 218.847 187.564 217.67 185.83C217.67 185.83 221.31 187.03 220.67 192.83C220.67 192.83 224.17 196.43 224.28 197.25C224.28 197.25 225.73 191.66 224.8 187.95C224.8 187.95 227.8 191.59 224.97 198.44L227.53 202.99C227.53 202.99 229.85 195.69 229.26 192.33C229.26 192.33 231.75 196.51 228.08 204.19L229.93 208.98C229.93 208.98 232.4 202.84 232.56 198.98C232.56 198.98 234.03 203.36 230.4 210.39L231.26 213.73C231.26 213.73 232.98 209.22 233.36 207.88C233.74 206.54 234.13 206.53 234.13 206.53C234.115 209.572 233.253 212.55 231.64 215.13C231.64 215.13 232.95 222.11 233.38 222.06Z" fill="#6C63FF"/>
<path opacity="0.1" d="M150.16 234.7C150.16 234.7 119.64 211.87 108.73 236.6C108.73 236.6 105.4 240.05 107.79 244.18C107.79 244.18 108.93 242.57 111.79 245.24C112.803 246.182 113.924 247.002 115.13 247.68C116.763 248.589 118.649 248.941 120.5 248.68V248.68C120.5 248.68 131.86 250.87 144.94 238.56C144.94 238.56 149.61 237.06 150.05 236.18L143.16 234.97C143.16 234.97 142.44 240.04 138.89 242.31C138.89 242.31 143.28 235.25 142.14 234.74C141.91 234.63 138.47 234.24 138.47 234.24C138.47 234.24 137.19 243.06 131.59 246.39C131.59 246.39 137.96 238.68 137.17 234.08L131.94 233.8C131.94 233.8 131.05 243.19 124.81 247.23C124.81 247.23 131.18 238.94 130.81 233.82L125.63 234.24C125.63 234.24 124.58 243.37 119.37 246.69C119.37 246.69 125.76 236.37 124.45 234.41C124.45 234.41 119.72 235.08 118.55 235.86C118.55 235.86 117.64 242.4 114.44 244.06C114.44 244.06 117.99 236.71 117.27 236.2C117.27 236.2 111.34 238.71 109.01 241.57C111.026 238.832 113.721 236.667 116.83 235.29C114.896 234.486 112.769 234.264 110.71 234.65C110.71 234.65 113.25 231.79 118.27 234.7C118.27 234.7 122.97 232.93 123.77 233.15C123.77 233.15 119.22 229.58 115.45 228.96C115.45 228.96 119.99 227.66 125.14 232.96L130.33 232.43C130.33 232.43 124.56 227.43 121.25 226.59C121.25 226.59 126.08 225.98 131.65 232.4L136.77 232.63C136.77 232.63 132.14 227.91 128.65 226.21C128.65 226.21 133.24 226.61 138.24 232.74L141.65 233.29C141.65 233.29 138.2 229.91 137.12 229.03C136.04 228.15 136.19 227.78 136.19 227.78C138.972 229.012 141.357 230.992 143.08 233.5C143.08 233.5 150.03 235.11 150.16 234.7Z" fill="#6C63FF"/>
<path opacity="0.1" d="M251.77 22.59C251.77 22.59 221.25 -0.250027 210.34 24.49C210.34 24.49 207.01 27.94 209.4 32.07C209.4 32.07 210.54 30.46 213.4 33.13C214.418 34.0676 215.543 34.8831 216.75 35.56C218.383 36.4701 220.269 36.8213 222.12 36.56V36.56C222.12 36.56 233.48 38.75 246.56 26.43C246.56 26.43 251.23 24.94 251.66 24.05L244.77 22.86C244.77 22.86 244.06 27.93 240.5 30.2C240.5 30.2 244.9 23.14 243.76 22.63C243.53 22.52 240.09 22.13 240.09 22.13C240.09 22.13 238.77 30.97 233.17 34.28C233.17 34.28 239.53 26.57 238.75 21.97L233.52 21.69C233.52 21.69 232.62 31.08 226.39 35.11C226.39 35.11 232.76 26.82 232.39 21.7L227.22 22.12C227.22 22.12 226.16 31.26 220.95 34.58C220.95 34.58 227.35 24.26 226.04 22.3C226.04 22.3 221.31 22.97 220.14 23.75C220.14 23.75 219.23 30.29 216.03 31.95C216.03 31.95 219.58 24.6 218.86 24.08C218.86 24.08 212.93 26.6 210.6 29.46C212.613 26.7187 215.309 24.5533 218.42 23.18C216.484 22.37 214.352 22.1475 212.29 22.54C212.29 22.54 214.84 19.68 219.86 22.59C219.86 22.59 224.56 20.81 225.36 21.04C225.36 21.04 220.81 17.47 217.04 16.84C217.04 16.84 221.57 15.55 226.72 20.84L231.91 20.31C231.91 20.31 226.15 15.31 222.83 14.46C222.83 14.46 227.66 13.86 233.24 20.28L238.36 20.5C238.36 20.5 233.73 15.78 230.23 14.09C230.23 14.09 234.83 14.49 239.83 20.62L243.23 21.17C243.23 21.17 239.77 17.83 238.69 16.97C237.61 16.11 237.76 15.73 237.76 15.73C240.543 16.9606 242.928 18.9411 244.65 21.45C244.65 21.45 251.6 22.97 251.77 22.59Z" fill="#6C63FF"/>
<path opacity="0.1" d="M368.39 51.5201C368.39 51.5201 356.19 15.41 333.18 29.6C333.18 29.6 328.48 30.6 328.11 35.31C328.11 35.31 329.96 34.63 330.78 38.43C331.085 39.7818 331.544 41.0938 332.15 42.3401C332.977 44.0173 334.324 45.3819 335.99 46.2301V46.2301C335.99 46.2301 344.11 54.48 361.87 51.75C361.87 51.75 366.56 53.17 367.42 52.68L362.42 47.7701C362.42 47.7701 358.96 51.54 354.74 51.39C354.74 51.39 362.37 48.07 361.74 47C361.61 46.79 359 44.5201 359 44.5201C359 44.5201 352.94 51.0501 346.44 50.6201C346.44 50.6201 356.05 47.8801 358.01 43.6201L353.87 40.43C353.87 40.43 347.81 47.65 340.38 47.43C340.38 47.43 350.38 44.22 352.91 39.78L348.41 37.1901C348.41 37.1901 342.41 44.1201 336.19 43.9001C336.19 43.9001 347.31 39.03 347.34 36.67C347.34 36.67 343.07 34.5401 341.66 34.5201C341.66 34.5201 337.2 39.3901 333.66 38.9501C333.66 38.9501 340.74 34.9 340.44 34.07C340.44 34.07 334.14 32.78 330.59 33.82C333.801 32.7021 337.248 32.4436 340.59 33.07C339.449 31.309 337.819 29.919 335.9 29.07C335.9 29.07 339.62 28.1601 342.11 33.4001C342.11 33.4001 346.99 34.61 347.51 35.24C347.51 35.24 345.79 29.73 343.04 27.07C343.04 27.07 347.51 28.58 348.73 35.89L353.31 38.39C353.31 38.39 351.42 30.98 349.14 28.39C349.14 28.39 353.47 30.6301 354.41 39.0801L358.51 42.17C358.51 42.17 357.37 35.6501 355.45 32.2701C355.45 32.2701 359.01 35.21 359.65 43.1L362.14 45.4801C362.14 45.4801 361.22 40.7401 360.84 39.4001C360.46 38.0601 360.77 37.9701 360.77 37.9701C362.36 40.5642 363.201 43.5476 363.2 46.5901C363.2 46.5901 368.04 51.7801 368.39 51.5201Z" fill="#6C63FF"/>
<path opacity="0.1" d="M288.77 53.3C288.77 53.3 250.87 49.08 254 75.97C254 75.97 252.87 80.63 257 82.97C257 82.97 257.17 80.97 261 81.87C262.354 82.1613 263.736 82.2988 265.12 82.28C266.99 82.2463 268.798 81.6038 270.27 80.45V80.45C270.27 80.45 281.18 76.58 286.27 59.33C286.27 59.33 289.53 55.68 289.46 54.69L282.91 57.11C282.91 57.11 284.91 61.84 282.91 65.6C282.91 65.6 283.12 57.29 281.91 57.42C281.66 57.42 278.5 58.86 278.5 58.86C278.5 58.86 281.86 67.11 278.72 72.86C278.72 72.86 280.3 62.98 277.29 59.42L272.64 61.82C272.64 61.82 276.64 70.37 273.29 77.01C273.29 77.01 274.59 66.63 271.66 62.42L267.41 65.42C267.41 65.42 271.13 73.83 268.32 79.34C268.32 79.34 268.61 67.2 266.48 66.17C266.48 66.17 262.74 69.17 262.13 70.41C262.13 70.41 264.66 76.51 262.75 79.56C262.75 79.56 262.08 71.43 261.2 71.35C261.2 71.35 257.36 76.52 256.8 80.17C257.147 76.7861 258.374 73.552 260.36 70.79C258.285 71.0768 256.339 71.963 254.76 73.34C254.76 73.34 255.5 69.59 261.3 69.55C261.3 69.55 264.45 65.64 265.3 65.43C265.3 65.43 259.57 64.66 256 66.03C256 66.03 259.25 62.61 266.39 64.6L270.6 61.51C270.6 61.51 262.99 59.97 259.77 60.97C259.77 60.97 263.63 57.97 271.69 60.72L276.22 58.31C276.22 58.31 269.83 56.59 265.96 56.9C265.96 56.9 270.13 54.9 277.54 57.67L280.76 56.42C280.76 56.42 276.07 55.25 274.69 55.03C273.31 54.81 273.26 54.43 273.26 54.43C276.283 54.0832 279.343 54.5816 282.1 55.87C282.1 55.87 288.84 53.72 288.77 53.3Z" fill="#6C63FF"/>
<path opacity="0.1" d="M620.37 347.47C620.37 347.47 582.49 343.25 585.62 370.11C585.62 370.11 584.49 374.77 588.62 377.11C588.62 377.11 588.79 375.11 592.62 376C593.972 376.301 595.355 376.439 596.74 376.41C598.611 376.381 600.421 375.738 601.89 374.58V374.58C601.89 374.58 612.8 370.71 617.84 353.47C617.84 353.47 621.1 349.81 621.03 348.83L614.48 351.24C614.48 351.24 616.48 355.98 614.48 359.74C614.48 359.74 614.69 351.42 613.48 351.56C613.23 351.56 610.07 352.99 610.07 352.99C610.07 352.99 613.43 361.24 610.29 366.99C610.29 366.99 611.87 357.12 608.86 353.55L604.21 355.96C604.21 355.96 608.21 364.51 604.87 371.15C604.87 371.15 606.16 360.77 603.23 356.55L598.98 359.55C598.98 359.55 602.7 367.96 599.89 373.46C599.89 373.46 600.18 361.32 598.05 360.3C598.05 360.3 594.32 363.3 593.7 364.54C593.7 364.54 596.24 370.64 594.32 373.69C594.32 373.69 593.65 365.56 592.77 365.48C592.77 365.48 588.93 370.65 588.37 374.3C588.717 370.916 589.944 367.682 591.93 364.92C589.853 365.202 587.906 366.089 586.33 367.47C586.33 367.47 587.07 363.71 592.87 363.67C592.87 363.67 596.03 359.76 596.87 359.56C596.87 359.56 591.14 358.78 587.57 360.15C587.57 360.15 590.82 356.74 597.97 358.73L602.17 355.64C602.17 355.64 594.65 354.22 591.38 355.2C591.38 355.2 595.24 352.2 603.3 354.94L607.83 352.54C607.83 352.54 601.44 350.82 597.57 351.13C597.57 351.13 601.74 349.13 609.15 351.9L612.37 350.64C612.37 350.64 607.68 349.47 606.3 349.26C604.92 349.05 604.87 348.66 604.87 348.66C607.892 348.307 610.953 348.802 613.71 350.09C613.71 350.09 620.47 347.9 620.37 347.47Z" fill="#6C63FF"/>
<path opacity="0.1" d="M678.28 382.85C678.28 382.85 640.4 378.64 643.53 405.49C643.53 405.49 642.41 410.15 646.53 412.49C646.53 412.49 646.7 410.49 650.53 411.39C651.88 411.684 653.259 411.818 654.64 411.79C656.501 411.752 658.301 411.114 659.77 409.97V409.97C659.77 409.97 670.67 406.1 675.71 388.85C675.71 388.85 678.98 385.2 678.9 384.21L672.35 386.62C672.35 386.62 674.35 391.36 672.35 395.12C672.35 395.12 672.56 386.81 671.35 386.94C671.1 386.94 667.94 388.37 667.94 388.37C667.94 388.37 671.3 396.62 668.16 402.37C668.16 402.37 669.74 392.5 666.73 388.94L662.08 391.34C662.08 391.34 666.08 399.89 662.74 406.53C662.74 406.53 664.03 396.15 661.1 391.94L656.85 394.94C656.85 394.94 660.57 403.35 657.77 408.86C657.77 408.86 658.05 396.71 655.92 395.69C655.92 395.69 652.19 398.69 651.57 399.93C651.57 399.93 654.11 406.03 652.19 409.08C652.19 409.08 651.52 400.95 650.64 400.87C650.64 400.87 646.8 406.04 646.25 409.69C646.596 406.308 647.82 403.074 649.8 400.31C647.725 400.597 645.779 401.483 644.2 402.86C644.2 402.86 644.95 399.1 650.75 399.07C650.75 399.07 653.9 395.16 654.75 394.95C654.75 394.95 649.02 394.18 645.45 395.55C645.45 395.55 648.7 392.13 655.85 394.12L660.05 391.03C660.05 391.03 652.53 389.61 649.26 390.59C649.26 390.59 653.12 387.59 661.18 390.34L665.71 387.93C665.71 387.93 659.32 386.21 655.45 386.52C655.45 386.52 659.62 384.52 667.03 387.29L670.25 386.04C670.25 386.04 665.56 384.87 664.19 384.65C662.82 384.43 662.75 384.05 662.75 384.05C665.773 383.703 668.833 384.202 671.59 385.49C671.59 385.49 678.38 383.28 678.28 382.85Z" fill="#6C63FF"/>
<path opacity="0.1" d="M549.71 84.8399C549.71 84.8399 519.19 62.0099 508.28 86.7399C508.28 86.7399 504.95 90.1899 507.34 94.3199C507.34 94.3199 508.48 92.7099 511.34 95.3799C512.353 96.3224 513.474 97.1414 514.68 97.8199C516.314 98.7287 518.199 99.0798 520.05 98.8199V98.8199C520.05 98.8199 531.41 101.01 544.5 88.6999C544.5 88.6999 549.16 87.1999 549.6 86.3199L542.73 85.0799C542.73 85.0799 542.01 90.1499 538.46 92.4199C538.46 92.4199 542.85 85.3599 541.71 84.8499C541.48 84.7399 538.05 84.3499 538.05 84.3499C538.05 84.3499 536.76 93.1699 531.16 96.4999C531.16 96.4999 537.53 88.7899 536.74 84.1899L531.51 83.9099C531.51 83.9099 530.62 93.2999 524.38 97.3399C524.38 97.3399 530.76 89.0499 530.38 83.9299L525.2 84.3499C525.2 84.3499 524.2 93.4799 518.94 96.7999C518.94 96.7999 525.34 86.4799 524.02 84.5199C524.02 84.5199 519.29 85.1899 518.12 85.9699C518.12 85.9699 517.22 92.5099 514.02 94.1699C514.02 94.1699 517.56 86.8199 516.84 86.3099C516.84 86.3099 510.91 88.8199 508.58 91.6799C510.596 88.9416 513.291 86.7768 516.4 85.3999C514.466 84.596 512.339 84.3735 510.28 84.7599C510.28 84.7599 512.83 81.8999 517.85 84.8099C517.85 84.8099 522.54 83.0399 523.34 83.2599C523.34 83.2599 518.79 79.6899 515.02 79.0699C515.02 79.0699 519.56 77.7699 524.71 83.0699L529.9 82.5399C529.9 82.5399 524.14 77.5399 520.82 76.6999C520.82 76.6999 525.65 76.0899 531.22 82.5099L536.35 82.7399C536.35 82.7399 531.71 78.0199 528.22 76.3199C528.22 76.3199 532.82 76.7199 537.81 82.8499L541.22 83.3999C541.22 83.3999 537.77 80.0199 536.69 79.1399C535.61 78.2599 535.77 77.9699 535.77 77.9699C538.548 79.2039 540.93 81.1839 542.65 83.6899C542.65 83.6899 549.58 85.2499 549.71 84.8399Z" fill="#6C63FF"/>
<path opacity="0.1" d="M573.29 249.66C573.29 249.66 562.77 213.03 539.11 226.18C539.11 226.18 534.37 226.91 533.78 231.65C533.78 231.65 535.66 231.06 536.31 234.89C536.551 236.266 536.954 237.609 537.51 238.89C538.252 240.613 539.537 242.046 541.17 242.97V242.97C541.17 242.97 548.91 251.57 566.77 249.65C566.77 249.65 571.39 251.27 572.27 250.83L567.54 245.69C567.54 245.69 563.91 249.31 559.71 248.97C559.71 248.97 567.47 245.97 566.87 244.9C566.75 244.68 564.25 242.29 564.25 242.29C564.25 242.29 557.91 248.55 551.43 247.82C551.43 247.82 561.16 245.52 563.3 241.38L559.3 238C559.3 238 552.92 244.94 545.51 244.4C545.51 244.4 555.59 241.63 558.37 237.32L553.99 234.53C553.99 234.53 547.64 241.18 541.48 240.68C541.48 240.68 552.81 236.31 552.95 233.96C552.95 233.96 548.77 231.64 547.36 231.56C547.36 231.56 542.69 236.22 539.14 235.62C539.14 235.62 546.4 231.89 546.14 231.05C546.14 231.05 539.9 229.48 536.31 230.35C539.561 229.386 543.008 229.286 546.31 230.06C545.252 228.251 543.688 226.79 541.81 225.86C541.81 225.86 545.57 225.11 547.81 230.46C547.81 230.46 552.62 231.88 553.12 232.54C553.12 232.54 551.65 226.95 549.02 224.18C549.02 224.18 553.42 225.88 554.31 233.24L558.77 235.95C558.77 235.95 557.21 228.45 555.05 225.81C555.05 225.81 559.27 228.24 559.84 236.72L563.84 239.99C563.84 239.99 562.99 233.43 561.23 229.99C561.23 229.99 564.66 233.09 564.94 240.99L567.32 243.49C567.32 243.49 566.62 238.71 566.32 237.35C566.02 235.99 566.32 235.8 566.32 235.8C567.8 238.46 568.51 241.479 568.37 244.52C568.37 244.52 572.93 249.9 573.29 249.66Z" fill="#6C63FF"/>
<path opacity="0.1" d="M338.87 332.2C338.87 332.2 318.44 300.02 299.47 319.28C299.47 319.28 295.13 321.28 295.89 326.03C295.89 326.03 297.54 324.93 299.24 328.43C299.851 329.67 300.61 330.832 301.5 331.89C302.692 333.334 304.326 334.346 306.15 334.77V334.77C306.15 334.77 316 340.85 332.6 333.97C332.6 333.97 337.49 334.23 338.21 333.56L332.21 329.96C332.21 329.96 329.74 334.46 325.61 335.31C325.61 335.31 332.23 330.31 331.34 329.39C331.17 329.21 328.09 327.63 328.09 327.63C328.09 327.63 323.76 335.41 317.34 336.54C317.34 336.54 326.03 331.59 326.93 327.01L322.14 324.9C322.14 324.9 317.97 333.35 310.71 334.9C310.71 334.9 319.61 329.41 321.06 324.49L316.06 323.05C316.06 323.05 311.84 331.22 305.79 332.47C305.79 332.47 315.43 325.09 314.9 322.79C314.9 322.79 310.24 321.74 308.9 322.06C308.9 322.06 305.73 327.85 302.15 328.27C302.15 328.27 308.07 322.65 307.58 321.91C307.58 321.91 301.15 322.16 297.95 324.01C300.804 322.161 304.094 321.092 307.49 320.91C305.969 319.471 304.061 318.508 302 318.14C302 318.14 305.39 316.37 309 320.87C309 320.87 314 320.87 314.69 321.37C314.69 321.37 311.69 316.37 308.4 314.5C308.4 314.5 313.1 314.9 316.02 321.71L321.07 323.05C321.07 323.05 317.46 316.3 314.65 314.37C314.65 314.37 319.38 315.51 322.31 323.5L327.03 325.5C327.03 325.5 324.37 319.45 321.7 316.62C321.7 316.62 325.86 318.62 328.35 326.13L331.35 327.86C331.35 327.86 329.35 323.47 328.64 322.26C327.93 321.05 328.21 320.77 328.21 320.77C330.374 322.907 331.901 325.605 332.62 328.56C332.62 328.56 338.6 332.54 338.87 332.2Z" fill="#6C63FF"/>
<path d="M473.14 167.78C473.14 167.78 453.71 134.99 434.14 153.65C434.14 153.65 429.74 155.55 430.36 160.29C430.36 160.29 432.03 159.23 433.63 162.78C434.202 164.042 434.924 165.23 435.78 166.32C436.928 167.795 438.531 168.849 440.34 169.32V169.32C440.34 169.32 449.99 175.7 466.8 169.32C466.8 169.32 471.68 169.73 472.42 169.08L466.55 165.3C466.55 165.3 463.95 169.71 459.79 170.44C459.79 170.44 466.56 165.61 465.71 164.7C465.53 164.51 462.51 162.83 462.51 162.83C462.51 162.83 457.94 170.48 451.51 171.41C451.51 171.41 460.35 166.73 461.38 162.19L456.66 159.97C456.66 159.97 452.23 168.3 444.92 169.63C444.92 169.63 453.99 164.42 455.59 159.55L450.65 157.95C450.65 157.95 446.17 165.95 440.09 167.05C440.09 167.05 449.95 159.97 449.49 157.66C449.49 157.66 444.87 156.46 443.49 156.74C443.49 156.74 440.14 162.43 436.55 162.74C436.55 162.74 442.64 157.32 442.18 156.56C442.18 156.56 435.74 156.61 432.49 158.36C435.401 156.604 438.721 155.639 442.12 155.56C440.642 154.073 438.761 153.052 436.71 152.62C436.71 152.62 440.16 150.95 443.71 155.56C443.71 155.56 448.71 155.73 449.38 156.24C449.38 156.24 446.55 151.24 443.31 149.18C443.31 149.18 447.99 149.72 450.7 156.62L455.7 158.12C455.7 158.12 452.31 151.26 449.55 149.24C449.55 149.24 454.25 150.53 456.93 158.6L461.58 160.77C461.58 160.77 459.11 154.64 456.58 151.77C456.58 151.77 460.67 153.9 462.94 161.48L465.87 163.3C465.87 163.3 463.99 158.85 463.33 157.62C462.67 156.39 462.95 156.12 462.95 156.12C465.046 158.323 466.49 161.065 467.12 164.04C467.12 164.04 472.85 168.11 473.14 167.78Z" fill="#6C63FF"/>
<path d="M350.21 236.73C350.21 236.73 351.21 198.63 324.74 204C324.74 204 320 203.27 318 207.61C318 207.61 320 207.61 319.44 211.46C319.257 212.833 319.237 214.222 319.38 215.6C319.561 217.468 320.351 219.226 321.63 220.6C321.63 220.6 326.4 231.14 344.01 234.72C344.01 234.72 347.92 237.67 348.9 237.51L345.9 231.19C345.9 231.19 341.35 233.53 337.44 231.94C337.44 231.94 345.74 231.45 345.51 230.23C345.51 229.98 343.79 226.94 343.79 226.94C343.79 226.94 335.85 230.99 329.9 228.33C329.9 228.33 339.9 229.08 343.17 225.79L340.38 221.36C340.38 221.36 332.2 226.04 325.3 223.28C325.3 223.28 335.75 223.7 339.71 220.43L336.38 216.43C336.38 216.43 328.31 220.85 322.59 218.51C322.59 218.51 334.71 217.78 335.59 215.57C335.59 215.57 332.31 212.1 330.99 211.57C330.99 211.57 325.13 214.57 321.93 212.95C321.93 212.95 329.93 211.61 329.98 210.72C329.98 210.72 324.51 207.33 320.82 207.08C324.223 207.141 327.55 208.092 330.47 209.84C330.014 207.796 328.972 205.93 327.47 204.47C327.47 204.47 331.28 204.9 331.8 210.67C331.8 210.67 335.97 213.49 336.24 214.27C336.24 214.27 336.53 208.5 334.86 205.06C334.86 205.06 338.54 208.01 337.16 215.29L340.59 219.23C340.59 219.23 341.37 211.61 340.12 208.44C340.12 208.44 343.4 212.03 341.38 220.29L344.15 224.6C344.15 224.6 345.33 218.09 344.7 214.26C344.7 214.26 347.02 218.26 344.9 225.87L346.42 228.97C346.42 228.97 347.19 224.2 347.29 222.81C347.39 221.42 347.77 221.33 347.77 221.33C348.372 224.313 348.133 227.405 347.08 230.26C347.08 230.26 349.77 236.86 350.21 236.73Z" fill="#6C63FF"/>
<path opacity="0.1" d="M468.005 486.901C482.878 486.901 494.935 484.864 494.935 482.351C494.935 479.838 482.878 477.801 468.005 477.801C453.131 477.801 441.075 479.838 441.075 482.351C441.075 484.864 453.131 486.901 468.005 486.901Z" fill="#6C63FF"/>
<path opacity="0.1" d="M369.835 555.981C384.708 555.981 396.765 553.944 396.765 551.431C396.765 548.918 384.708 546.881 369.835 546.881C354.962 546.881 342.905 548.918 342.905 551.431C342.905 553.944 354.962 555.981 369.835 555.981Z" fill="#6C63FF"/>
<path opacity="0.1" d="M106.489 532.436C121.362 532.436 133.419 530.399 133.419 527.886C133.419 525.373 121.362 523.336 106.489 523.336C91.6155 523.336 79.5585 525.373 79.5585 527.886C79.5585 530.399 91.6155 532.436 106.489 532.436Z" fill="#6C63FF"/>
<path opacity="0.1" d="M574.095 551.431C588.968 551.431 601.025 549.394 601.025 546.881C601.025 544.368 588.968 542.331 574.095 542.331C559.222 542.331 547.165 544.368 547.165 546.881C547.165 549.394 559.222 551.431 574.095 551.431Z" fill="#6C63FF"/>
<path d="M602.135 495.951C624.342 495.951 642.345 492.906 642.345 489.151C642.345 485.395 624.342 482.351 602.135 482.351C579.927 482.351 561.925 485.395 561.925 489.151C561.925 492.906 579.927 495.951 602.135 495.951Z" fill="#6C63FF"/>
<path d="M618.805 478.021C620.64 476.529 621.976 474.513 622.635 472.241C623.135 469.941 622.154 467.191 619.964 466.351C617.504 465.411 614.875 467.111 612.875 468.831C610.875 470.551 608.605 472.521 605.995 472.161C607.334 470.944 608.337 469.401 608.904 467.682C609.472 465.963 609.586 464.127 609.235 462.351C609.121 461.615 608.81 460.924 608.335 460.351C606.965 458.891 604.495 459.521 602.855 460.671C597.655 464.331 596.205 471.391 596.175 477.751C595.655 475.461 596.095 473.071 596.085 470.751C596.075 468.431 595.425 465.751 593.435 464.531C592.213 463.85 590.833 463.505 589.435 463.531C587.095 463.451 584.485 463.681 582.895 465.391C580.895 467.511 581.425 471.081 583.145 473.391C584.865 475.701 587.495 477.191 589.915 478.811C591.851 479.967 593.505 481.543 594.755 483.421C594.897 483.682 595.014 483.957 595.105 484.241H609.765C613.046 482.588 616.088 480.495 618.805 478.021V478.021Z" fill="#6C63FF"/>
<path d="M88.4085 506.736C88.4085 506.736 103.759 506.266 108.409 502.966C113.059 499.666 132.039 495.736 133.189 501.026C134.339 506.316 156.269 527.316 138.929 527.456C121.589 527.596 98.6385 524.756 94.0185 521.936C89.3985 519.116 88.4085 506.736 88.4085 506.736Z" fill="#A8A8A8"/>
<path opacity="0.2" d="M139.219 525.616C121.879 525.756 98.9285 522.916 94.3085 520.096C90.7885 517.956 89.3885 510.266 88.9185 506.716H88.4085C88.4085 506.716 89.4086 519.106 93.9986 521.916C98.5886 524.726 121.569 527.576 138.909 527.436C143.909 527.436 145.639 525.616 145.549 522.976C144.849 524.586 142.939 525.586 139.219 525.616Z" fill="black"/>
<path d="M370.867 429.377C359.315 445.909 317.783 437.152 317.783 437.152L285.598 407.034L281.265 402.956L288.532 387.522C288.532 387.522 290.843 388.157 294.805 389.29C315.611 395.332 380.618 415.479 370.867 429.377Z" fill="#EFB7B9"/>
<path opacity="0.1" d="M294.782 389.29C293.361 394.234 289.468 401.639 285.598 407.034L281.265 402.956L288.532 387.522C288.532 387.522 290.866 388.157 294.782 389.29Z" fill="black"/>
<path opacity="0.1" d="M215.046 333.617C215.046 333.617 209.05 345.898 212.735 345.066C216.421 344.234 215.046 333.617 215.046 333.617Z" fill="black"/>
<path d="M217.946 358.421L306.901 343.945V428.164L222.382 423.739L217.946 358.421Z" fill="#6C63FF"/>
<path opacity="0.05" d="M217.946 358.421L306.901 343.945V428.164L222.382 423.739L217.946 358.421Z" fill="black"/>
<path d="M306.901 343.945L413.577 351.928L407.674 425.218L306.901 428.164V343.945Z" fill="#6C63FF"/>
<path opacity="0.1" d="M306.901 343.945L413.577 351.928L407.674 425.218L306.901 428.164V343.945Z" fill="black"/>
<path d="M339.699 318.241L306.901 343.946L413.577 351.928L431.01 325.623L339.699 318.241Z" fill="#6C63FF"/>
<path d="M185.737 330.348L265.82 320.598L306.901 343.945L217.946 358.421L185.737 330.348Z" fill="#6C63FF"/>
<path d="M326.401 365.815V480.96L284.731 476.685L266.605 474.837L261.083 474.259L242.968 472.399L217.946 469.834V358.421L306.889 364.474L326.401 365.815Z" fill="#6C63FF"/>
<path d="M413.577 351.928V464.22L380.179 470.631L363.936 473.751L326.401 480.96V365.815L413.577 351.928Z" fill="#6C63FF"/>
<path opacity="0.05" d="M413.577 351.928V464.22L380.179 470.631L363.936 473.751L326.401 480.96V365.815L413.577 351.928Z" fill="black"/>
<path d="M185.737 382.658L217.946 358.421L326.401 365.815L310.436 392.709L185.737 382.658Z" fill="#6C63FF"/>
<path opacity="0.1" d="M185.737 382.658L217.946 358.421L326.401 365.815L310.436 392.709L185.737 382.658Z" fill="white"/>
<path d="M413.577 351.928L326.401 365.815L354.775 391.23L448.154 375.565L413.577 351.928Z" fill="#6C63FF"/>
<path opacity="0.1" d="M413.577 351.928L326.401 365.815L354.775 391.23L448.154 375.565L413.577 351.928Z" fill="white"/>
<path opacity="0.1" d="M380.179 470.631L363.936 473.751V449.756L379.151 445.92L380.179 470.631Z" fill="white"/>
<path opacity="0.1" d="M284.731 460.812V476.685L266.605 474.837V460.812H284.731Z" fill="white"/>
<path opacity="0.1" d="M261.083 465.814V474.259L242.968 472.399V465.814H261.083Z" fill="white"/>
</svg>
