<svg width="419" height="449" viewBox="0 0 419 449" fill="none" xmlns="http://www.w3.org/2000/svg">
<path d="M183.723 363.998C183.85 363.49 184.789 362.246 187.53 361.333C190.956 360.191 190.195 360.571 191.718 357.526C193.24 354.48 193.621 358.287 196.667 354.48C199.713 350.673 199.713 348.769 204.662 352.576C209.611 356.383 212.657 363.236 204.662 365.521C214.18 366.663 204.662 367.043 208.088 371.993C211.515 376.942 210.753 372.373 214.56 374.658C218.367 376.942 212.276 383.795 216.083 385.698C219.89 387.602 221.032 383.414 223.697 384.937C226.362 386.46 221.032 389.886 225.601 389.886C230.17 389.886 231.312 381.51 238.164 384.937C243.647 387.678 244.763 390.394 244.637 391.409C244.89 392.678 246.388 395.749 250.347 397.881C255.297 400.546 247.302 400.165 248.824 403.972C250.347 407.78 253.774 403.211 255.297 407.78C256.819 412.348 256.439 413.11 252.251 413.49C248.063 413.871 253.012 416.536 248.824 416.536C244.637 416.536 253.393 425.292 259.484 423.008C260.627 431.384 257.2 429.099 248.824 434.429C240.449 439.759 236.261 442.044 230.931 442.424C225.601 442.805 229.408 446.993 224.459 447.754C219.51 448.516 223.317 440.14 218.367 440.14C213.418 440.14 220.271 443.567 216.083 445.089C211.895 446.612 206.946 448.135 206.565 445.851C206.185 443.567 213.418 442.044 211.515 437.094C209.611 432.145 205.804 447.754 202.378 442.424C198.951 437.094 200.474 442.424 198.19 440.902C195.905 439.379 197.809 434.81 192.86 438.617C187.91 442.424 187.53 433.287 184.103 432.907C181.362 432.602 178.393 433.541 177.251 434.049C177.885 433.034 178.773 430.318 177.251 427.577C175.347 424.15 165.829 426.815 165.829 421.105C165.829 415.394 173.063 420.724 172.682 408.16C172.301 395.597 159.738 391.79 153.266 392.17" stroke="#A3B6BE"/>
<path d="M146.408 187.728C146.027 189.124 145.951 191.916 148.692 191.916C151.433 191.916 151.865 194.961 151.738 196.484C150.342 197.119 148.235 198.921 150.977 201.053C152.626 201.433 156.002 203.413 156.307 208.286C156.687 214.378 162.017 215.139 161.256 218.565C160.494 221.992 161.256 223.134 170.393 222.753C179.53 222.373 183.337 236.459 181.814 240.647C190.571 239.885 195.52 250.545 193.236 261.205C190.951 271.865 194.758 265.393 194.758 272.246C194.758 279.099 195.52 285.571 200.088 285.952C203.743 286.256 204.149 292.931 203.896 296.231L208.845 301.18C211.129 299.53 216.84 296.916 221.408 299.657C227.119 303.084 221.789 293.947 230.165 292.804C238.54 291.662 231.688 290.139 235.875 283.667C240.063 277.195 238.54 283.667 243.87 277.957C249.2 272.246 244.251 273.388 240.825 265.774C237.398 258.16 240.825 257.017 240.825 253.21C240.825 249.403 242.348 247.5 248.058 244.073C250.342 242.703 251.485 243.693 253.388 244.073C252.5 242.043 251.561 237.449 254.911 235.317C259.099 232.652 251.104 237.601 257.957 237.22C258.591 236.586 260.317 235.317 262.145 235.317C264.429 235.317 263.667 238.363 265.952 237.22C267.779 236.307 267.728 233.54 267.475 232.271M253.769 244.454C254.911 244.327 257.424 244.53 258.337 246.357C259.48 248.642 257.576 248.261 260.241 250.926C262.906 253.591 262.525 255.114 261.002 258.921C259.48 262.728 264.048 260.063 264.048 264.632C264.048 269.2 261.383 275.672 266.713 275.672C272.043 275.672 269.378 280.241 272.043 283.667C274.708 287.094 279.277 288.997 279.657 290.52C280.038 292.043 278.515 292.804 285.368 292.043C292.221 291.282 290.317 288.997 294.886 289.378C299.454 289.759 293.744 292.043 300.977 292.043C308.211 292.043 300.977 294.708 304.023 295.089C307.069 295.469 307.83 296.992 305.926 299.657C304.023 302.322 309.353 304.606 313.541 303.845C317.729 303.084 315.444 301.942 318.871 301.942C322.297 301.942 316.967 303.464 320.013 304.606C323.059 305.749 325.343 302.703 325.724 306.129C326.104 309.556 323.059 306.51 323.059 309.556C323.059 311.992 326.104 312.094 327.627 311.84C328.896 310.317 332.119 307.728 334.861 309.556C338.287 311.84 336.764 316.409 339.81 316.409C342.856 316.409 345.521 314.886 346.282 316.409C347.043 317.931 345.901 324.404 350.851 324.404C355.8 324.404 354.277 319.454 363.414 320.596C372.551 321.739 366.84 325.546 372.551 325.546C378.262 325.546 382.45 325.546 385.876 326.688C389.302 327.83 392.348 323.261 394.252 325.546C396.155 327.83 392.729 332.779 398.44 335.825C404.15 338.871 402.247 340.393 406.815 340.013C411.384 339.632 407.577 341.536 414.049 340.013C420.521 338.49 417.094 336.967 417.094 332.779C417.094 328.591 415.952 326.688 412.145 326.688C408.338 326.688 413.287 322.881 407.957 321.739C402.627 320.596 410.242 318.312 404.912 314.505C399.582 310.698 403.77 307.271 398.44 304.606C393.11 301.942 403.389 299.277 390.825 294.327C401.485 288.997 388.541 279.86 382.45 282.144C380.927 279.479 379.023 277.195 380.927 274.53C381.561 273.515 383.44 271.561 385.876 271.865C388.922 272.246 388.922 268.439 394.252 266.916C399.582 265.393 400.343 260.444 396.536 257.779C392.729 255.114 389.683 252.83 390.825 248.642C391.967 244.454 383.592 254.352 383.592 243.312C383.592 232.271 382.83 241.028 379.785 233.033C376.739 225.038 385.876 230.368 385.876 225.038C385.876 219.708 379.785 220.088 387.018 210.571C394.252 201.053 386.257 201.053 380.927 194.581C376.663 189.403 374.582 189.124 374.074 189.631" stroke="#A3B6BE"/>
<path d="M103.391 214.758C104.533 216.027 106.132 220.164 103.391 226.56C100.65 232.956 106.564 236.332 109.863 237.22C108.975 238.489 108.112 241.408 111.767 242.931C116.335 244.835 109.483 246.357 115.955 247.88C122.427 249.403 117.477 249.403 115.955 253.972C114.432 258.54 119 260.825 114.051 258.921C109.102 257.017 110.625 261.205 107.96 261.586C105.295 261.967 106.056 259.302 102.249 261.205C98.4419 263.109 103.391 263.109 101.868 267.297C100.345 271.485 103.772 270.723 100.345 274.53C96.919 278.337 102.249 278.337 102.249 281.383C102.249 284.429 102.249 288.617 96.919 285.571C91.589 282.525 91.2083 284.048 89.6855 279.86C86.6398 276.434 82.0712 280.241 79.4062 273.388" stroke="#A3B6BE"/>
<path d="M15.0716 130.621C16.7214 128.463 18.5742 123.311 12.7873 119.961C5.55379 115.773 7.45735 115.012 8.9802 107.397C10.5031 99.7831 9.74163 99.4024 13.9295 97.8795C18.1173 96.3567 13.9295 93.311 13.9295 86.8389C13.9295 80.3668 16.2137 81.5089 15.0716 76.5596C13.9295 71.6104 13.168 65.8997 8.9802 64.3768C4.79237 62.854 -3.20259 56.3819 2.88881 49.5291C8.9802 42.6762 13.5488 57.524 19.6402 56.7626C25.7316 56.0012 31.823 51.4326 30.6808 47.2448C29.5387 43.057 35.2494 51.0519 39.4372 42.2955C43.625 33.5391 47.4322 38.4884 52.3814 35.4427C57.3307 32.397 58.0921 37.3463 62.28 33.1584C66.4678 28.9706 59.9957 29.732 66.0871 22.1178C72.1785 14.5035 74.4627 19.8335 77.5084 14.5035C80.5541 9.17355 78.6506 6.88928 85.8841 10.6964C93.1177 14.5035 88.1684 12.6 95.0212 10.6964C101.874 8.79282 103.778 6.88928 106.823 10.6964C109.869 14.5035 115.96 14.5035 122.052 14.5035C125.707 12.9807 124.59 17.6761 123.575 20.2142C122.813 22.1178 121.595 26.3056 122.813 27.8285C124.336 29.732 125.478 34.6813 125.478 37.727C125.478 40.7727 127.382 36.9655 127.762 40.7727C128.143 44.5798 125.859 46.1026 128.905 46.4834C131.95 46.8641 125.478 51.4326 119.768 53.3362C121.29 57.524 115.96 58.2854 115.96 61.3311C115.96 64.3768 109.108 66.6611 105.3 63.9961C101.493 61.3311 104.158 68.5647 98.4476 68.5647C92.7369 68.5647 94.2598 73.8947 88.1684 71.2297C82.077 68.5647 88.5491 61.7119 81.6963 62.4733C74.8435 63.2347 79.412 67.0418 76.747 67.4225C74.082 67.8033 73.7013 69.7068 75.2242 71.9911C76.747 74.2754 78.2699 78.4632 77.8892 81.5089C77.5084 84.5546 80.9349 83.0317 80.1734 88.3617C79.412 93.6917 82.077 88.7424 85.8841 93.6917C89.6912 98.641 90.072 89.1231 94.6405 92.1688C99.2091 95.2145 103.778 94.8338 103.778 98.641C103.778 102.448 105.681 99.7831 106.443 101.687C107.204 103.59 104.92 107.397 106.443 107.397C107.965 107.397 109.108 104.352 111.011 105.494C112.915 106.636 115.96 105.113 117.864 107.397C119.768 109.682 114.057 107.778 115.96 111.204C117.864 114.631 120.529 109.301 123.194 109.682C125.859 110.062 125.098 111.204 128.143 111.204C131.189 111.204 126.62 113.108 130.047 113.869C133.473 114.631 130.808 111.585 133.473 112.727C136.138 113.869 139.184 112.727 139.945 114.631C140.707 116.534 133.854 119.961 137.661 125.291" stroke="#A3B6BE"/>
<path d="M121.285 14.8843C124.204 14.5035 129.813 11.3817 128.899 1.94004C133.468 -1.10568 135.372 4.22431 135.372 4.22431C135.372 4.22431 136.666 1.3309 138.798 1.94004C140.321 6.50857 135.372 16.7878 135.372 16.7878C135.118 18.1838 135.448 21.5848 138.798 24.0213C142.986 27.067 141.082 19.4528 144.509 24.0213C147.935 28.5899 144.128 28.9706 146.031 30.8742C147.935 32.7777 149.839 35.062 149.077 36.9656C148.316 38.8691 153.646 37.3463 155.549 40.0113C157.453 42.6763 160.118 41.5341 165.067 42.2955C170.016 43.057 165.829 46.4834 169.255 46.8641C172.681 47.2448 172.301 41.5341 176.869 44.1991C181.438 46.8641 174.966 47.2448 178.773 50.2905C182.58 53.3362 175.727 54.859 178.773 56.0012C181.818 57.1433 181.057 51.4326 183.722 53.7169C186.387 56.0012 189.052 56.7626 189.813 59.0469C190.575 61.3312 186.768 60.9504 189.052 62.854C191.336 64.7576 191.336 62.0926 193.621 62.0926C195.905 62.0926 195.143 65.8997 196.666 65.8997C197.885 65.8997 199.966 65.8997 200.854 65.8997C200.854 67.5495 201.615 70.849 204.661 70.849C208.468 70.849 205.042 66.6611 206.184 64.7576C207.326 62.854 207.707 65.1383 209.23 63.6154C210.753 62.0926 207.707 60.189 210.753 60.189C213.798 60.189 211.514 61.3312 213.037 62.0926C214.56 62.854 214.179 60.5697 216.083 61.3312C217.986 62.0926 216.844 64.3769 222.174 62.854C227.504 61.3312 228.265 58.2855 230.93 56.7626C233.595 55.2398 232.072 57.1433 235.499 56.0012C238.925 54.859 232.834 53.3362 235.499 51.4326C238.164 49.5291 240.829 54.0976 243.875 51.4326C246.92 48.7677 245.778 45.3412 248.062 44.9605C250.347 44.5798 248.443 48.7677 251.489 48.7677C254.535 48.7677 255.296 49.1484 257.2 52.5748C259.103 56.0012 261.007 54.4783 262.149 56.7626C263.291 59.0469 264.052 60.5697 260.626 62.0926C257.2 63.6154 259.103 67.4226 262.91 66.6611C266.717 65.8997 262.529 70.849 265.194 70.849C267.859 70.849 270.905 68.5647 272.428 71.6104C273.951 74.6561 272.047 78.0825 273.57 78.4632C275.093 78.8439 278.9 77.7018 279.281 80.7475C279.662 83.7932 275.474 87.2196 277.377 90.2653C279.281 93.311 276.997 92.9303 279.281 96.3567C281.565 99.7831 283.469 97.4988 284.23 99.7831C284.992 102.067 283.849 108.54 288.799 108.92C293.748 109.301 295.271 108.54 294.509 101.687C299.078 99.7831 296.032 103.59 299.459 103.59C302.885 103.59 299.839 98.641 302.124 97.4988C304.408 96.3567 304.408 99.7831 306.311 99.7831C308.215 99.7831 306.692 94.8339 309.738 94.8339C312.784 94.8339 315.068 97.8796 318.494 96.3567C321.921 94.8339 319.256 92.5496 321.54 91.4074C323.824 90.2653 329.535 93.6917 329.535 90.2653C329.535 86.8389 325.728 86.4582 327.631 84.5546C329.535 82.6511 331.438 87.2196 333.342 84.5546C335.246 81.8896 339.053 81.1282 339.053 85.6968C339.053 90.2653 336.007 89.8846 337.53 94.8339C339.053 99.7831 340.956 98.2603 340.956 101.687C340.956 105.113 335.246 104.732 333.342 108.92C331.438 113.108 328.393 111.585 329.535 115.012C330.677 118.438 326.87 116.534 327.631 121.484C328.393 126.433 331.438 126.814 334.484 124.149C337.53 121.484 337.911 117.296 340.956 117.677C343.393 117.981 343.748 120.342 343.621 121.484C345.271 120.976 348.799 120.798 349.713 124.149C350.855 128.337 344.383 125.291 347.048 129.479C349.713 133.667 350.855 129.479 353.139 133.286C355.423 137.093 357.327 132.524 358.469 135.57C359.611 138.616 355.043 136.332 354.662 140.139C354.281 143.946 350.855 142.804 349.713 146.23C348.57 149.656 352.758 156.129 351.235 158.413C349.713 160.697 346.286 162.981 356.565 162.981C366.845 162.981 367.987 166.027 367.987 171.357C367.987 176.687 364.56 175.545 365.703 178.591C366.845 181.636 372.936 181.256 373.698 183.921C374.307 186.053 374.967 188.108 375.22 188.87C372.682 190.139 366.159 192.296 360.373 190.773C353.139 188.87 356.565 193.438 351.235 193.438C345.906 193.438 343.621 190.012 343.241 198.388C342.86 206.763 349.713 204.098 347.428 208.286C345.144 212.474 345.906 208.286 339.814 208.286C333.723 208.286 335.626 210.951 328.012 210.951C320.398 210.951 315.449 209.048 311.261 213.235C307.073 217.423 313.545 217.804 309.738 220.85C305.931 223.895 303.266 217.043 299.078 220.85C294.89 224.657 302.124 226.941 297.174 232.271C292.225 237.601 292.986 231.129 284.611 234.555C276.235 237.982 275.854 240.647 269.763 234.555C263.672 228.464 267.479 230.367 265.956 224.657C264.433 218.946 270.144 217.043 265.956 216.281C261.768 215.52 256.819 215.139 257.2 210.951C257.58 206.763 260.245 206.002 260.245 201.433C260.245 196.865 258.342 199.53 257.2 195.723C256.057 191.916 256.819 185.063 251.489 183.921C246.159 182.778 247.301 182.778 242.732 178.971C238.164 175.164 240.829 174.022 235.88 172.88C230.93 171.738 230.93 169.073 229.788 165.646C228.646 162.22 228.265 166.027 224.839 167.169C221.413 168.311 224.078 162.981 218.748 162.981C213.418 162.981 217.986 168.311 213.418 168.311C208.849 168.311 209.61 162.981 205.423 162.981C201.235 162.981 202.377 158.413 199.331 150.799C196.286 143.184 190.956 145.469 190.956 141.661C190.956 137.854 186.387 141.281 182.199 135.951C178.849 131.687 168.874 134.174 164.306 135.951" stroke="#A3B6BE"/>
<path d="M16.2032 217.423C17.8529 218.185 20.5433 220.241 18.1067 222.373C15.061 225.038 9.73105 222.373 13.9189 228.845C18.1067 235.317 18.1067 236.078 18.1067 240.266C18.1067 244.454 23.056 242.17 23.056 245.977C23.056 249.784 19.2489 250.926 28.7667 257.398C38.2845 263.87 28.0053 268.819 36.0002 276.053C43.9952 283.287 40.1881 287.855 38.6652 290.901C37.1424 293.946 43.2338 292.424 42.853 296.992C42.4723 301.561 43.6145 304.606 50.848 301.941C58.0815 299.276 52.7516 303.464 58.4623 301.941C64.1729 300.419 58.4623 300.419 60.3658 296.992C62.2694 293.566 65.3151 301.18 66.0765 296.992C66.8379 292.804 61.1272 293.946 62.6501 290.901C64.1729 287.855 64.5537 289.378 67.2186 288.617C69.8836 287.855 66.8379 282.144 69.1222 281.764C70.9496 281.459 71.4065 284.682 71.4065 286.332L73.31 284.429C73.8177 285.698 75.6705 287.474 79.0207 284.429C83.2086 280.622 82.4471 289.759 83.97 284.429C85.4928 279.099 76.7365 277.957 79.0207 274.149C80.8482 271.104 75.975 261.713 73.31 257.398C69.7567 253.337 62.6501 243.692 62.6501 237.601C62.6501 231.51 61.8887 227.956 61.508 226.941" stroke="#A3B6BE"/>
<path d="M71.7891 286.713C72.9312 286.967 74.987 287.855 74.0733 289.378C72.9312 291.282 70.6469 289.378 74.0733 294.327C77.4997 299.276 73.6926 298.134 75.5962 299.657C77.4997 301.18 79.784 300.419 79.784 302.703C79.784 304.987 76.3576 305.368 77.8805 306.891C79.4033 308.414 80.9262 303.464 82.8297 303.464C84.7333 303.464 82.8297 308.414 85.8754 308.794C88.9211 309.175 85.4947 306.51 87.3983 306.51C89.3018 306.51 87.3983 310.317 89.3018 310.317C91.2054 310.317 89.3018 306.891 91.2054 306.891C93.109 306.891 90.0633 310.698 92.7282 310.698C95.3932 310.698 93.4897 305.749 96.5354 306.891C99.5811 308.033 102.627 313.744 98.4389 314.124C94.2511 314.505 95.7739 319.835 98.0582 319.074C100.342 318.312 103.007 314.505 103.769 317.931H111.383C111.129 316.662 111.764 314.124 116.332 314.124C122.043 314.124 118.997 317.931 122.805 317.931C126.612 317.931 125.089 315.266 126.612 315.266C128.135 315.266 126.992 316.409 130.419 316.409C133.845 316.409 132.703 317.931 134.987 317.931C137.272 317.931 131.942 314.124 134.987 311.459C138.033 308.794 142.602 309.936 142.602 305.368C142.602 300.799 134.987 304.606 134.987 300.799C134.987 296.992 136.51 296.992 134.987 294.327C133.464 291.662 137.272 292.043 137.272 289.378C137.272 286.713 126.612 289.378 126.612 285.571C126.612 281.764 127.373 278.337 125.47 277.957C123.566 277.576 124.327 277.576 123.566 274.149C122.957 271.408 118.49 270.723 116.332 270.723C116.967 267.804 117.855 261.51 116.332 259.682" stroke="#A3B6BE"/>
<path d="M135.746 296.992C136.127 297.119 136.964 297.068 137.269 295.85C137.65 294.327 137.269 296.231 139.173 296.231C141.076 296.231 139.934 295.089 141.457 295.469C142.98 295.85 141.457 296.992 143.741 296.992C146.025 296.992 143.36 298.896 144.502 300.419C145.416 301.637 150.721 305.749 153.259 307.652C156.051 308.54 161.711 310.774 162.015 312.601C162.396 314.886 164.3 312.982 166.965 313.363C169.629 313.744 168.868 316.789 172.294 316.409C175.721 316.028 174.198 313.744 176.482 313.363C178.767 312.982 175.721 315.266 178.386 315.266C181.051 315.266 180.289 312.221 182.574 312.221C184.858 312.221 182.954 313.363 184.858 313.363C186.762 313.363 185.619 310.317 187.904 310.317C190.188 310.317 187.523 311.84 190.949 311.84C194.376 311.84 196.279 300.038 200.086 298.134C203.132 296.612 204.147 296.231 204.274 296.231" stroke="#A3B6BE"/>
<path d="M103.771 318.312C101.995 318.82 98.4414 320.596 98.4414 323.642C98.4414 327.449 100.345 325.545 99.9643 328.21C99.5835 330.875 98.8221 331.637 102.629 333.16C106.436 334.683 99.9643 334.683 99.9643 338.109C99.9643 341.535 104.533 341.535 101.487 346.865C98.4414 352.195 97.2993 350.672 103.771 352.957C110.243 355.241 106.817 357.145 112.908 357.525C119 357.906 110.243 362.475 117.858 362.855C125.472 363.236 116.716 370.089 122.426 367.424C128.137 364.759 126.233 364.759 129.66 370.85C132.401 375.723 137.401 371.104 139.558 368.185C138.924 369.835 138.568 373.211 142.223 373.515C146.792 373.896 138.797 379.226 146.03 382.652C153.264 386.079 147.173 379.607 150.599 380.749C154.025 381.891 148.315 388.744 152.503 392.17C162.782 389.886 155.548 388.363 160.878 384.556C166.208 380.749 158.975 378.084 164.685 376.561C170.396 375.038 171.157 378.084 173.442 377.322C175.726 376.561 171.919 374.657 174.203 373.515C176.487 372.373 177.249 375.038 178.391 372.373C179.533 369.708 176.487 368.947 178.391 367.424C180.295 365.901 180.675 370.089 183.34 365.14C186.005 360.19 180.295 366.662 181.817 362.094C183.036 358.439 180.548 357.018 179.152 356.764C179.026 354.987 177.63 351.51 173.061 351.815C167.35 352.195 174.203 349.911 164.685 347.246C155.168 344.581 163.924 344.2 162.02 340.013C160.117 335.825 155.929 343.439 155.548 339.632C155.168 335.825 157.833 338.49 158.213 335.444C158.594 332.398 150.599 339.251 150.599 335.444C150.599 331.637 153.645 335.063 153.264 330.495C152.883 325.926 156.69 332.398 156.31 327.83C155.929 323.261 151.36 327.068 151.36 322.5C151.36 317.931 153.645 322.5 153.645 317.55C153.645 312.601 151.36 317.55 151.36 314.124C151.36 311.383 152.883 308.807 153.645 307.862" stroke="#A3B6BE"/>
<path d="M244.641 390.647C246.163 388.109 249.742 382.576 251.874 380.749C254.539 378.465 249.59 381.13 250.732 376.561C251.874 371.993 253.016 372.373 254.158 375.419C255.301 378.465 256.443 376.561 257.966 371.231C259.488 365.901 258.727 367.424 252.636 367.424C246.544 367.424 248.828 359.048 252.636 359.048C256.443 359.048 259.869 364.759 262.534 362.475C265.199 360.19 257.966 360.952 260.25 357.145C262.534 353.338 255.681 352.957 257.966 349.53C260.25 346.104 259.108 351.434 262.534 349.53C265.961 347.627 259.488 345.723 263.676 343.439C267.864 341.155 265.199 339.251 268.245 336.206C271.29 333.16 269.387 335.825 272.433 334.683C275.478 333.541 272.052 330.114 276.62 329.353C281.189 328.591 281.57 325.165 284.235 329.353C286.9 333.541 288.423 332.398 291.088 326.307C293.753 320.216 294.133 328.591 299.844 326.307C305.555 324.023 299.083 323.261 305.174 320.977C311.265 318.693 307.839 322.881 312.027 322.5C316.215 322.119 310.504 320.596 314.692 317.551C318.88 314.505 316.595 319.835 319.641 318.693C322.687 317.551 321.545 314.886 323.829 314.505C325.656 314.2 327.382 312.601 328.017 311.84" stroke="#A3B6BE"/>
</svg>
