<svg width="461" height="459" viewBox="0 0 461 459" fill="none" xmlns="http://www.w3.org/2000/svg">
<path d="M220.724 368.998C220.85 368.49 221.79 367.246 224.531 366.333C227.957 365.19 227.196 365.571 228.719 362.525C230.241 359.48 230.622 363.287 233.668 359.48C236.714 355.673 236.714 353.769 241.663 357.576C246.612 361.383 249.658 368.236 241.663 370.52C251.181 371.663 241.663 372.043 245.089 376.993C248.516 381.942 247.754 377.373 251.561 379.657C255.368 381.942 249.277 388.795 253.084 390.698C256.891 392.602 258.033 388.414 260.698 389.937C263.363 391.46 258.033 394.886 262.602 394.886C267.17 394.886 268.313 386.51 275.165 389.937C280.648 392.678 281.764 395.394 281.638 396.409C281.891 397.678 283.389 400.749 287.348 402.881C292.298 405.546 284.303 405.165 285.825 408.972C287.348 412.779 290.775 408.211 292.298 412.779C293.82 417.348 293.44 418.109 289.252 418.49C285.064 418.871 290.013 421.536 285.825 421.536C281.638 421.536 290.394 430.292 296.485 428.008C297.627 436.384 294.201 434.099 285.825 439.429C277.45 444.759 273.262 447.044 267.932 447.424C262.602 447.805 266.409 451.993 261.46 452.754C256.511 453.516 260.318 445.14 255.368 445.14C250.419 445.14 257.272 448.566 253.084 450.089C248.896 451.612 243.947 453.135 243.566 450.851C243.186 448.566 250.419 447.044 248.516 442.094C246.612 437.145 242.805 452.754 239.378 447.424C235.952 442.094 237.475 447.424 235.191 445.901C232.906 444.379 234.81 439.81 229.861 443.617C224.911 447.424 224.531 438.287 221.104 437.906C218.363 437.602 215.394 438.541 214.251 439.049C214.886 438.033 215.774 435.318 214.251 432.577C212.348 429.15 202.83 431.815 202.83 426.104C202.83 420.394 210.064 425.724 209.683 413.16C209.302 400.597 196.739 396.79 190.267 397.17" stroke="#A3B6BE"/>
<path d="M183.408 192.728C183.027 194.123 182.951 196.915 185.692 196.915C188.433 196.915 188.865 199.961 188.738 201.484C187.342 202.118 185.235 203.92 187.977 206.052C189.626 206.433 193.002 208.413 193.307 213.286C193.687 219.377 199.017 220.139 198.256 223.565C197.494 226.992 198.256 228.134 207.393 227.753C216.53 227.372 220.337 241.459 218.814 245.647C227.571 244.885 232.52 255.545 230.236 266.205C227.951 276.865 231.758 270.393 231.758 277.246C231.758 284.099 232.52 290.571 237.088 290.951C240.743 291.256 241.149 297.931 240.896 301.231L245.845 306.18C248.129 304.53 253.84 301.916 258.408 304.657C264.119 308.083 258.789 298.946 267.165 297.804C275.54 296.662 268.688 295.139 272.875 288.667C277.063 282.195 275.54 288.667 280.87 282.956C286.2 277.246 281.251 278.388 277.825 270.774C274.398 263.159 277.825 262.017 277.825 258.21C277.825 254.403 279.348 252.499 285.058 249.073C287.342 247.702 288.485 248.692 290.388 249.073C289.5 247.043 288.561 242.449 291.911 240.317C296.099 237.652 288.104 242.601 294.957 242.22C295.591 241.586 297.317 240.317 299.145 240.317C301.429 240.317 300.667 243.362 302.952 242.22C304.779 241.306 304.728 238.54 304.475 237.271M290.769 249.454C291.911 249.327 294.424 249.53 295.337 251.357C296.48 253.642 294.576 253.261 297.241 255.926C299.906 258.591 299.525 260.114 298.002 263.921C296.48 267.728 301.048 265.063 301.048 269.631C301.048 274.2 298.383 280.672 303.713 280.672C309.043 280.672 306.378 285.241 309.043 288.667C311.708 292.093 316.277 293.997 316.657 295.52C317.038 297.043 315.515 297.804 322.368 297.043C329.221 296.281 327.317 293.997 331.886 294.378C336.454 294.758 330.744 297.043 337.977 297.043C345.211 297.043 337.977 299.708 341.023 300.088C344.069 300.469 344.83 301.992 342.926 304.657C341.023 307.322 346.353 309.606 350.541 308.845C354.729 308.083 352.444 306.941 355.871 306.941C359.297 306.941 353.967 308.464 357.013 309.606C360.059 310.748 362.343 307.703 362.724 311.129C363.104 314.556 360.059 311.51 360.059 314.556C360.059 316.992 363.104 317.094 364.627 316.84C365.896 315.317 369.119 312.728 371.861 314.556C375.287 316.84 373.764 321.408 376.81 321.408C379.856 321.408 382.521 319.885 383.282 321.408C384.043 322.931 382.901 329.403 387.851 329.403C392.8 329.403 391.277 324.454 400.414 325.596C409.551 326.738 403.84 330.545 409.551 330.545C415.262 330.545 419.45 330.545 422.876 331.688C426.302 332.83 429.348 328.261 431.252 330.545C433.155 332.83 429.729 337.779 435.44 340.825C441.15 343.87 439.247 345.393 443.815 345.013C448.384 344.632 444.577 346.535 451.049 345.013C457.521 343.49 454.094 341.967 454.094 337.779C454.094 333.591 452.952 331.688 449.145 331.688C445.338 331.688 450.287 327.88 444.957 326.738C439.627 325.596 447.242 323.312 441.912 319.505C436.582 315.698 440.77 312.271 435.44 309.606C430.11 306.941 440.389 304.276 427.825 299.327C438.485 293.997 425.541 284.86 419.45 287.144C417.927 284.479 416.023 282.195 417.927 279.53C418.561 278.515 420.44 276.56 422.876 276.865C425.922 277.246 425.922 273.439 431.252 271.916C436.582 270.393 437.343 265.444 433.536 262.779C429.729 260.114 426.683 257.829 427.825 253.642C428.967 249.454 420.592 259.352 420.592 248.312C420.592 237.271 419.83 246.027 416.785 238.032C413.739 230.037 422.876 235.367 422.876 230.037C422.876 224.707 416.785 225.088 424.018 215.57C431.252 206.052 423.257 206.052 417.927 199.58C413.663 194.403 411.582 194.123 411.074 194.631" stroke="#A3B6BE"/>
<path d="M140.393 219.759C141.535 221.028 143.134 225.165 140.393 231.561C137.652 237.957 143.566 241.332 146.865 242.221C145.977 243.49 145.114 246.409 148.769 247.932C153.337 249.835 146.484 251.358 152.957 252.881C159.429 254.404 154.479 254.404 152.957 258.972C151.434 263.541 156.002 265.825 151.053 263.921C146.104 262.018 147.627 266.206 144.962 266.586C142.297 266.967 143.058 264.302 139.251 266.206C135.444 268.109 140.393 268.109 138.87 272.297C137.347 276.485 140.774 275.724 137.347 279.531C133.921 283.338 139.251 283.338 139.251 286.383C139.251 289.429 139.251 293.617 133.921 290.571C128.591 287.526 128.21 289.048 126.687 284.861C123.642 281.434 119.073 285.241 116.408 278.389" stroke="#A3B6BE"/>
<path d="M52.0716 135.62C53.7214 133.463 55.5742 128.311 49.7873 124.961C42.5538 120.773 44.4574 120.011 45.9802 112.397C47.5031 104.783 46.7416 104.402 50.9295 102.879C55.1173 101.356 50.9295 98.3107 50.9295 91.8386C50.9295 85.3665 53.2137 86.5086 52.0716 81.5593C50.9295 76.6101 50.168 70.8994 45.9802 69.3765C41.7924 67.8537 33.7974 61.3816 39.8888 54.5287C45.9802 47.6759 50.5488 62.5237 56.6402 61.7623C62.7316 61.0009 68.823 56.4323 67.6808 52.2445C66.5387 48.0566 72.2494 56.0516 76.4372 47.2952C80.625 38.5388 84.4322 43.4881 89.3814 40.4424C94.3307 37.3967 95.0921 42.346 99.28 38.1581C103.468 33.9703 96.9957 34.7317 103.087 27.1175C109.178 19.5032 111.463 24.8332 114.508 19.5032C117.554 14.1732 115.651 11.889 122.884 15.6961C130.118 19.5032 125.168 17.5997 132.021 15.6961C138.874 13.7925 140.778 11.889 143.823 15.6961C146.869 19.5032 152.96 19.5032 159.052 19.5032C162.707 17.9804 161.59 22.6758 160.575 25.2139C159.813 27.1175 158.595 31.3053 159.813 32.8281C161.336 34.7317 162.478 39.681 162.478 42.7267C162.478 45.7724 164.382 41.9652 164.762 45.7724C165.143 49.5795 162.859 51.1023 165.905 51.4831C168.95 51.8638 162.478 56.4323 156.768 58.3359C158.29 62.5237 152.96 63.2851 152.96 66.3308C152.96 69.3765 146.108 71.6608 142.3 68.9958C138.493 66.3308 141.158 73.5644 135.448 73.5644C129.737 73.5644 131.26 78.8943 125.168 76.2294C119.077 73.5644 125.549 66.7115 118.696 67.473C111.843 68.2344 116.412 72.0415 113.747 72.4222C111.082 72.8029 110.701 74.7065 112.224 76.9908C113.747 79.2751 115.27 83.4629 114.889 86.5086C114.508 89.5543 117.935 88.0314 117.173 93.3614C116.412 98.6914 119.077 93.7421 122.884 98.6914C126.691 103.641 127.072 94.1228 131.641 97.1685C136.209 100.214 140.778 99.8335 140.778 103.641C140.778 107.448 142.681 104.783 143.443 106.686C144.204 108.59 141.92 112.397 143.443 112.397C144.965 112.397 146.108 109.351 148.011 110.493C149.915 111.636 152.96 110.113 154.864 112.397C156.768 114.681 151.057 112.778 152.96 116.204C154.864 119.631 157.529 114.301 160.194 114.681C162.859 115.062 162.098 116.204 165.143 116.204C168.189 116.204 163.62 118.108 167.047 118.869C170.473 119.631 167.808 116.585 170.473 117.727C173.138 118.869 176.184 117.727 176.945 119.631C177.707 121.534 170.854 124.961 174.661 130.291" stroke="#A3B6BE"/>
<path d="M158.285 19.8843C161.204 19.5035 166.813 16.3817 165.899 6.94004C170.468 3.89432 172.372 9.22431 172.372 9.22431C172.372 9.22431 173.666 6.3309 175.798 6.94004C177.321 11.5086 172.372 21.7878 172.372 21.7878C172.118 23.1838 172.448 26.5848 175.798 29.0213C179.986 32.067 178.082 24.4528 181.509 29.0213C184.935 33.5899 181.128 33.9706 183.031 35.8742C184.935 37.7777 186.839 40.062 186.077 41.9656C185.316 43.8691 190.646 42.3463 192.549 45.0113C194.453 47.6763 197.118 46.5341 202.067 47.2955C207.016 48.057 202.829 51.4834 206.255 51.8641C209.681 52.2448 209.301 46.5341 213.869 49.1991C218.438 51.8641 211.966 52.2448 215.773 55.2905C219.58 58.3362 212.727 59.859 215.773 61.0012C218.818 62.1433 218.057 56.4326 220.722 58.7169C223.387 61.0012 226.052 61.7626 226.813 64.0469C227.575 66.3312 223.768 65.9504 226.052 67.854C228.336 69.7576 228.336 67.0926 230.621 67.0926C232.905 67.0926 232.143 70.8997 233.666 70.8997C234.885 70.8997 236.966 70.8997 237.854 70.8997C237.854 72.5495 238.615 75.849 241.661 75.849C245.468 75.849 242.042 71.6611 243.184 69.7576C244.326 67.854 244.707 70.1383 246.23 68.6154C247.753 67.0926 244.707 65.189 247.753 65.189C250.798 65.189 248.514 66.3312 250.037 67.0926C251.56 67.854 251.179 65.5697 253.083 66.3312C254.986 67.0926 253.844 69.3769 259.174 67.854C264.504 66.3312 265.265 63.2855 267.93 61.7626C270.595 60.2398 269.072 62.1433 272.499 61.0012C275.925 59.859 269.834 58.3362 272.499 56.4326C275.164 54.5291 277.829 59.0976 280.875 56.4326C283.92 53.7677 282.778 50.3412 285.062 49.9605C287.347 49.5798 285.443 53.7677 288.489 53.7677C291.535 53.7677 292.296 54.1484 294.2 57.5748C296.103 61.0012 298.007 59.4783 299.149 61.7626C300.291 64.0469 301.052 65.5697 297.626 67.0926C294.2 68.6154 296.103 72.4226 299.91 71.6611C303.717 70.8997 299.529 75.849 302.194 75.849C304.859 75.849 307.905 73.5647 309.428 76.6104C310.951 79.6561 309.047 83.0825 310.57 83.4632C312.093 83.8439 315.9 82.7018 316.281 85.7475C316.662 88.7932 312.474 92.2196 314.377 95.2653C316.281 98.311 313.997 97.9303 316.281 101.357C318.565 104.783 320.469 102.499 321.23 104.783C321.992 107.067 320.849 113.54 325.799 113.92C330.748 114.301 332.271 113.54 331.509 106.687C336.078 104.783 333.032 108.59 336.459 108.59C339.885 108.59 336.839 103.641 339.124 102.499C341.408 101.357 341.408 104.783 343.311 104.783C345.215 104.783 343.692 99.8339 346.738 99.8339C349.784 99.8339 352.068 102.88 355.494 101.357C358.921 99.8339 356.256 97.5496 358.54 96.4074C360.824 95.2653 366.535 98.6917 366.535 95.2653C366.535 91.8389 362.728 91.4582 364.631 89.5546C366.535 87.6511 368.438 92.2196 370.342 89.5546C372.246 86.8896 376.053 86.1282 376.053 90.6968C376.053 95.2653 373.007 94.8846 374.53 99.8339C376.053 104.783 377.956 103.26 377.956 106.687C377.956 110.113 372.246 109.732 370.342 113.92C368.438 118.108 365.393 116.585 366.535 120.012C367.677 123.438 363.87 121.534 364.631 126.484C365.393 131.433 368.438 131.814 371.484 129.149C374.53 126.484 374.911 122.296 377.956 122.677C380.393 122.981 380.748 125.342 380.621 126.484C382.271 125.976 385.799 125.798 386.713 129.149C387.855 133.337 381.383 130.291 384.048 134.479C386.713 138.667 387.855 134.479 390.139 138.286C392.423 142.093 394.327 137.524 395.469 140.57C396.611 143.616 392.043 141.332 391.662 145.139C391.281 148.946 387.855 147.804 386.713 151.23C385.57 154.656 389.758 161.129 388.235 163.413C386.713 165.697 383.286 167.981 393.565 167.981C403.845 167.981 404.987 171.027 404.987 176.357C404.987 181.687 401.56 180.545 402.703 183.591C403.845 186.636 409.936 186.256 410.698 188.921C411.307 191.053 411.967 193.108 412.22 193.87C409.682 195.139 403.159 197.296 397.373 195.773C390.139 193.87 393.565 198.438 388.235 198.438C382.906 198.438 380.621 195.012 380.241 203.388C379.86 211.763 386.713 209.098 384.428 213.286C382.144 217.474 382.906 213.286 376.814 213.286C370.723 213.286 372.626 215.951 365.012 215.951C357.398 215.951 352.449 214.048 348.261 218.235C344.073 222.423 350.545 222.804 346.738 225.85C342.931 228.895 340.266 222.043 336.078 225.85C331.89 229.657 339.124 231.941 334.174 237.271C329.225 242.601 329.986 236.129 321.611 239.555C313.235 242.982 312.854 245.647 306.763 239.555C300.672 233.464 304.479 235.367 302.956 229.657C301.433 223.946 307.144 222.043 302.956 221.281C298.768 220.52 293.819 220.139 294.2 215.951C294.58 211.763 297.245 211.002 297.245 206.433C297.245 201.865 295.342 204.53 294.2 200.723C293.057 196.916 293.819 190.063 288.489 188.921C283.159 187.778 284.301 187.778 279.732 183.971C275.164 180.164 277.829 179.022 272.88 177.88C267.93 176.738 267.93 174.073 266.788 170.646C265.646 167.22 265.265 171.027 261.839 172.169C258.413 173.311 261.078 167.981 255.748 167.981C250.418 167.981 254.986 173.311 250.418 173.311C245.849 173.311 246.61 167.981 242.423 167.981C238.235 167.981 239.377 163.413 236.331 155.799C233.286 148.184 227.956 150.469 227.956 146.661C227.956 142.854 223.387 146.281 219.199 140.951C215.849 136.687 205.874 139.174 201.306 140.951" stroke="#A3B6BE"/>
<path d="M53.2041 222.423C54.8539 223.184 57.5443 225.24 55.1077 227.372C52.062 230.037 46.732 227.372 50.9199 233.844C55.1077 240.316 55.1077 241.078 55.1077 245.266C55.1077 249.453 60.057 247.169 60.057 250.976C60.057 254.783 56.2499 255.926 65.7677 262.398C75.2855 268.87 65.0062 273.819 73.0012 281.053C80.9962 288.286 77.189 292.855 75.6662 295.9C74.1433 298.946 80.2347 297.423 79.854 301.992C79.4733 306.56 80.6155 309.606 87.849 306.941C95.0825 304.276 89.7525 308.464 95.4632 306.941C101.174 305.418 95.4632 305.418 97.3668 301.992C99.2704 298.565 102.316 306.18 103.077 301.992C103.839 297.804 98.1282 298.946 99.6511 295.9C101.174 292.855 101.555 294.378 104.22 293.616C106.885 292.855 103.839 287.144 106.123 286.763C107.951 286.459 108.407 289.682 108.407 291.332L110.311 289.428C110.819 290.697 112.671 292.474 116.022 289.428C120.21 285.621 119.448 294.758 120.971 289.428C122.494 284.098 113.737 282.956 116.022 279.149C117.849 276.103 112.976 266.712 110.311 262.398C106.758 258.337 99.6511 248.692 99.6511 242.601C99.6511 236.509 98.8896 232.956 98.5089 231.941" stroke="#A3B6BE"/>
<path d="M111.074 294.378C111.988 292.855 109.932 291.967 108.79 291.713L110.5 290C110.667 290.333 111.4 291 113 291C115 291 116 288 118 288.5C120 289 119.5 291 120 291C120.5 291 122.5 288 120 285.5C117.5 283 114.5 282 116 279C116.667 280.333 118.4 283 120 283C122 283 125.5 283 126.5 285C127.5 287 128 288.5 130.5 289C133 289.5 135 293.5 138 291.5C141 289.5 140 285.5 139 284.5C138 283.5 135 283 136 281C137 279 139 279.5 139.5 276.5C140 273.5 138 276 138.5 274C139 272 140 271 140 270C140 269 137 268.5 138.5 267C140 265.5 142.5 265.5 144 267C145.5 268.5 146 263.5 148 263.5C149.6 263.5 152.222 264.288 153.333 264.683C154.856 266.51 153.968 272.804 153.333 275.723C155.491 275.723 159.958 276.409 160.567 279.15C161.328 282.576 160.567 282.576 162.47 282.957C164.374 283.338 163.613 286.764 163.613 290.571C163.613 294.378 174.273 291.713 174.273 294.378C174.273 297.043 170.465 296.662 171.988 299.327C173.511 301.992 171.988 301.992 171.988 305.8C171.988 309.607 179.603 305.8 179.603 310.368C179.603 314.937 175.034 313.795 171.988 316.46C168.943 319.124 174.273 322.932 171.988 322.932C169.704 322.932 170.846 321.409 167.42 321.409C163.993 321.409 165.135 320.267 163.613 320.267C162.09 320.267 163.613 322.932 159.806 322.932C155.998 322.932 159.044 319.124 153.333 319.124C148.765 319.124 148.13 321.663 148.384 322.932H140.77C140.008 319.505 137.343 323.312 135.059 324.074C132.775 324.835 131.252 319.505 135.44 319.124C139.628 318.744 136.582 313.033 133.536 311.891C130.491 310.749 132.394 315.698 129.729 315.698C127.064 315.698 130.11 311.891 128.206 311.891C126.303 311.891 128.206 315.317 126.303 315.317C124.399 315.317 126.303 311.51 124.399 311.51C122.496 311.51 125.922 314.175 122.876 313.795C119.831 313.414 121.734 308.465 119.831 308.465C117.927 308.465 116.404 313.414 114.881 311.891C113.359 310.368 116.785 309.987 116.785 307.703C116.785 305.419 114.501 306.18 112.597 304.657C110.694 303.135 114.501 304.277 111.074 299.327C107.648 294.378 109.932 296.282 111.074 294.378Z" stroke="#A3B6BE"/>
<path d="M172.747 301.992C173.128 302.119 173.965 302.069 174.27 300.85C174.651 299.327 174.27 301.231 176.173 301.231C178.077 301.231 176.935 300.089 178.458 300.47C179.981 300.85 178.458 301.992 180.742 301.992C183.026 301.992 180.361 303.896 181.503 305.419C182.417 306.637 187.722 310.749 190.26 312.652C193.052 313.541 198.712 315.774 199.016 317.602C199.397 319.886 201.301 317.982 203.965 318.363C206.63 318.744 205.869 321.789 209.295 321.409C212.722 321.028 211.199 318.744 213.483 318.363C215.768 317.982 212.722 320.267 215.387 320.267C218.052 320.267 217.29 317.221 219.575 317.221C221.859 317.221 219.955 318.363 221.859 318.363C223.763 318.363 222.62 315.317 224.905 315.317C227.189 315.317 224.524 316.84 227.95 316.84C231.377 316.84 233.28 305.038 237.087 303.135C240.133 301.612 241.148 301.231 241.275 301.231" stroke="#A3B6BE"/>
<path d="M135.442 328.641C135.442 325.596 138.996 323.819 140.772 323.311H148.5C148.333 322.208 149 319.9 153 319.5C158 319 155 323.311 159 323.311C163 323.311 162 320.5 164 320.5C166 320.5 164 322 167 322C170 322 170 324.123 172.5 323.311C175 322.5 170.5 320.5 171.5 318.5C172.5 316.5 172.5 316 177 314.5C181.5 313 181 307.5 177 307.5C173 307.5 171.5 306 173 302.5C174 301.5 174.5 302 174.5 300.5C175 302 177.5 302.5 178 301C179 302 179 303 181 302.5C182 303.5 179 304.5 181 306C182.6 307.2 188.097 311.074 190.646 312.861C189.884 313.807 188.361 316.382 188.361 319.124C188.361 322.55 190.646 317.601 190.646 322.55C190.646 327.499 188.361 322.931 188.361 327.499C188.361 332.068 192.93 328.261 193.311 332.829C193.691 337.398 189.884 330.926 190.265 335.494C190.646 340.063 187.6 336.636 187.6 340.444C187.6 344.251 195.595 337.398 195.214 340.444C194.834 343.489 192.169 340.824 192.549 344.631C192.93 348.438 197.118 340.824 199.021 345.012C200.925 349.2 192.169 349.581 201.686 352.246C211.204 354.911 204.351 357.195 210.062 356.814C214.631 356.51 216.027 359.987 216.153 361.763C217.549 362.017 220.037 363.439 218.818 367.093C217.296 371.662 223.006 365.19 220.341 370.139C217.676 375.088 217.296 370.901 215.392 372.423C213.488 373.946 216.534 374.708 215.392 377.373C214.25 380.038 213.488 377.373 211.204 378.515C208.92 379.657 212.727 381.56 210.443 382.322C208.158 383.083 207.397 380.038 201.686 381.56C195.976 383.083 203.209 385.748 197.879 389.555C192.549 393.363 199.783 394.885 189.504 397.17C185.316 393.743 191.026 386.89 187.6 385.748C184.174 384.606 190.265 391.078 183.031 387.652C175.798 384.225 183.793 378.895 179.224 378.515C175.569 378.21 175.925 374.835 176.559 373.185C174.402 376.104 169.402 380.723 166.661 375.85C163.234 369.758 165.138 369.758 159.427 372.423C153.717 375.088 162.473 368.236 154.859 367.855C147.244 367.474 156.001 362.906 149.909 362.525C143.818 362.144 147.244 360.241 140.772 357.956C134.3 355.672 135.442 357.195 138.488 351.865C141.534 346.535 136.965 346.535 136.965 343.109C136.965 339.682 143.437 339.682 139.63 338.159C135.823 336.636 136.585 335.875 136.965 333.21C137.346 330.545 135.442 332.449 135.442 328.641Z" stroke="#A3B6BE"/>
<path d="M281.642 395.647C283.164 393.109 286.743 387.576 288.875 385.749C291.54 383.465 286.591 386.13 287.733 381.561C288.875 376.992 290.017 377.373 291.159 380.419C292.302 383.465 293.444 381.561 294.967 376.231C296.489 370.901 295.728 372.424 289.637 372.424C283.545 372.424 285.829 364.048 289.637 364.048C293.444 364.048 296.87 369.759 299.535 367.475C302.2 365.19 294.967 365.952 297.251 362.145C299.535 358.337 292.682 357.957 294.967 354.53C297.251 351.104 296.109 356.434 299.535 354.53C302.961 352.627 296.489 350.723 300.677 348.439C304.865 346.155 302.2 344.251 305.246 341.205C308.291 338.16 306.388 340.825 309.434 339.683C312.479 338.54 309.053 335.114 313.621 334.353C318.19 333.591 318.571 330.165 321.236 334.353C323.901 338.54 325.424 337.398 328.089 331.307C330.754 325.216 331.134 333.591 336.845 331.307C342.556 329.023 336.083 328.261 342.175 325.977C348.266 323.693 344.84 327.881 349.028 327.5C353.216 327.119 347.505 325.596 351.693 322.551C355.881 319.505 353.596 324.835 356.642 323.693C359.688 322.551 358.546 319.886 360.83 319.505C362.657 319.2 364.383 317.601 365.018 316.84" stroke="#A3B6BE"/>
<path d="M18.1828 186.354C13.6142 179.444 8.28427 193.648 6 186.354C10.8224 183.411 19.4772 176.296 15.5178 171.382C10.5685 165.239 11.7107 159.481 18.1828 156.793C24.6549 154.106 25.0356 162.552 34.5534 147.963C42.1677 136.293 49.1474 134.911 51.6855 135.678C53.0814 136.19 56.787 138.212 60.4419 142.205C65.0104 147.196 55.1119 156.793 64.249 156.793C73.3861 156.793 73.0054 164.855 76.0511 162.552C79.0968 160.248 81.0003 164.855 82.9039 164.855C84.8075 164.855 86.711 159.481 82.9039 156.793C79.0968 154.106 81.0003 150.267 82.9039 147.963C84.8075 145.66 81.0003 142.205 86.711 142.205C92.4217 142.205 93.9446 134.143 96.2288 140.669C98.5131 147.196 98.8938 147.963 102.701 147.963C106.508 147.963 106.889 152.186 108.412 154.106C109.934 156.025 114.503 159.481 118.691 159.481C122.879 159.481 120.594 164.087 129.732 164.855C138.869 165.623 141.534 172.917 146.864 173.685C152.194 174.453 148.386 169.846 153.716 171.382C159.046 172.917 158.285 170.23 160.569 168.694C162.854 167.159 161.331 164.855 161.331 162.552C161.331 160.248 164.376 159.481 162.473 159.481C160.95 159.481 161.838 157.689 162.473 156.793L161.331 154.106C162.346 154.49 164.376 154.643 164.376 152.186C164.376 149.729 161.584 147.068 160.189 146.044C161.584 145.916 164.376 144.969 164.376 142.205C164.376 138.75 164.376 137.982 166.28 137.214C167.803 136.6 168.183 134.911 168.183 134.143C171.991 131.711 179.757 127.309 180.366 129.152C180.975 130.995 178.843 132.735 177.701 133.375H181.128C180.874 135.294 181.052 138.75 183.793 137.214C187.219 135.294 187.219 140.669 193.311 137.214C198.184 134.45 200.163 136.062 200.544 137.214C201.686 137.47 203.285 138.826 200.544 142.205C197.118 146.428 199.021 147.196 199.021 150.267C199.021 153.338 195.214 152.954 195.214 155.258C195.214 157.561 197.118 156.793 196.737 159.481C196.356 162.168 194.833 158.713 195.214 162.552C195.595 166.391 199.021 164.471 199.021 167.927C199.021 171.382 192.93 169.462 191.407 171.382C189.884 173.301 191.788 174.453 189.884 177.524C188.361 179.981 189.25 184.179 189.884 185.97C189.123 185.074 186.991 183.82 184.554 185.97C182.118 188.12 183.031 191.729 183.793 193.264C180.493 193.776 172.904 194.8 168.945 194.8C163.996 194.8 168.183 189.809 164.376 189.809C160.569 189.809 161.711 197.487 156.762 197.487C151.813 197.487 151.432 193.648 148.386 194.8C145.341 195.952 145.721 199.407 147.625 204.014C149.529 208.621 148.767 220.906 145.721 222.057C142.676 223.209 140.772 220.138 137.346 217.834C133.919 215.531 130.493 220.522 127.828 222.057C125.163 223.593 128.97 224.361 126.686 225.897C124.402 227.432 124.782 225.897 122.879 225.897C120.975 225.897 114.884 232.807 112.98 232.807C111.077 232.807 111.457 234.726 108.412 234.726C105.366 234.726 109.554 232.807 106.889 232.807C104.224 232.807 106.889 234.342 104.224 234.726C101.559 235.11 103.843 232.807 98.8938 232.807C93.9446 232.807 99.6553 250.467 94.3253 248.547C88.9953 246.627 84.046 237.414 81.0003 232.807C77.9547 228.2 74.5282 234.726 69.1983 225.897C63.8683 217.067 58.919 223.209 53.2083 223.209C47.4977 223.209 48.2591 213.995 46.3555 207.853C44.452 201.71 37.9798 202.478 32.2692 200.175C26.5585 197.871 27.3199 195.184 25.0356 192.497C22.7513 189.809 22.7513 193.264 18.1828 186.354Z" stroke="#A3B6BE"/>
<g filter="url(#filter0_f)">
<path d="M220.724 368.998C220.85 368.49 221.79 367.246 224.531 366.333C227.957 365.19 227.196 365.571 228.719 362.525C230.241 359.48 230.622 363.287 233.668 359.48C236.714 355.673 236.714 353.769 241.663 357.576C246.612 361.383 249.658 368.236 241.663 370.52C251.181 371.663 241.663 372.043 245.089 376.993C248.516 381.942 247.754 377.373 251.561 379.657C255.368 381.942 249.277 388.795 253.084 390.698C256.891 392.602 258.033 388.414 260.698 389.937C263.363 391.46 258.033 394.886 262.602 394.886C267.17 394.886 268.313 386.51 275.165 389.937C280.648 392.678 281.764 395.394 281.638 396.409C281.891 397.678 283.389 400.749 287.348 402.881C292.298 405.546 284.303 405.165 285.825 408.972C287.348 412.779 290.775 408.211 292.298 412.779C293.82 417.348 293.44 418.109 289.252 418.49C285.064 418.871 290.013 421.536 285.825 421.536C281.638 421.536 290.394 430.292 296.485 428.008C297.627 436.384 294.201 434.099 285.825 439.429C277.45 444.759 273.262 447.044 267.932 447.424C262.602 447.805 266.409 451.993 261.46 452.754C256.511 453.516 260.318 445.14 255.368 445.14C250.419 445.14 257.272 448.566 253.084 450.089C248.896 451.612 243.947 453.135 243.566 450.851C243.186 448.566 250.419 447.044 248.516 442.094C246.612 437.145 242.805 452.754 239.378 447.424C235.952 442.094 237.475 447.424 235.191 445.901C232.906 444.379 234.81 439.81 229.861 443.617C224.911 447.424 224.531 438.287 221.104 437.906C218.363 437.602 215.394 438.541 214.251 439.049C214.886 438.033 215.774 435.318 214.251 432.577C212.348 429.15 202.83 431.815 202.83 426.104C202.83 420.394 210.064 425.724 209.683 413.16C209.302 400.597 196.739 396.79 190.267 397.17" stroke="#A3B6BE"/>
<path d="M183.408 192.728C183.027 194.123 182.951 196.915 185.692 196.915C188.433 196.915 188.865 199.961 188.738 201.484C187.342 202.118 185.235 203.92 187.977 206.052C189.626 206.433 193.002 208.413 193.307 213.286C193.687 219.377 199.017 220.139 198.256 223.565C197.494 226.992 198.256 228.134 207.393 227.753C216.53 227.372 220.337 241.459 218.814 245.647C227.571 244.885 232.52 255.545 230.236 266.205C227.951 276.865 231.758 270.393 231.758 277.246C231.758 284.099 232.52 290.571 237.088 290.951C240.743 291.256 241.149 297.931 240.896 301.231L245.845 306.18C248.129 304.53 253.84 301.916 258.408 304.657C264.119 308.083 258.789 298.946 267.165 297.804C275.54 296.662 268.688 295.139 272.875 288.667C277.063 282.195 275.54 288.667 280.87 282.956C286.2 277.246 281.251 278.388 277.825 270.774C274.398 263.159 277.825 262.017 277.825 258.21C277.825 254.403 279.348 252.499 285.058 249.073C287.342 247.702 288.485 248.692 290.388 249.073C289.5 247.043 288.561 242.449 291.911 240.317C296.099 237.652 288.104 242.601 294.957 242.22C295.591 241.586 297.317 240.317 299.145 240.317C301.429 240.317 300.667 243.362 302.952 242.22C304.779 241.306 304.728 238.54 304.475 237.271M290.769 249.454C291.911 249.327 294.424 249.53 295.337 251.357C296.48 253.642 294.576 253.261 297.241 255.926C299.906 258.591 299.525 260.114 298.002 263.921C296.48 267.728 301.048 265.063 301.048 269.631C301.048 274.2 298.383 280.672 303.713 280.672C309.043 280.672 306.378 285.241 309.043 288.667C311.708 292.093 316.277 293.997 316.657 295.52C317.038 297.043 315.515 297.804 322.368 297.043C329.221 296.281 327.317 293.997 331.886 294.378C336.454 294.758 330.744 297.043 337.977 297.043C345.211 297.043 337.977 299.708 341.023 300.088C344.069 300.469 344.83 301.992 342.926 304.657C341.023 307.322 346.353 309.606 350.541 308.845C354.729 308.083 352.444 306.941 355.871 306.941C359.297 306.941 353.967 308.464 357.013 309.606C360.059 310.748 362.343 307.703 362.724 311.129C363.104 314.556 360.059 311.51 360.059 314.556C360.059 316.992 363.104 317.094 364.627 316.84C365.896 315.317 369.119 312.728 371.861 314.556C375.287 316.84 373.764 321.408 376.81 321.408C379.856 321.408 382.521 319.885 383.282 321.408C384.043 322.931 382.901 329.403 387.851 329.403C392.8 329.403 391.277 324.454 400.414 325.596C409.551 326.738 403.84 330.545 409.551 330.545C415.262 330.545 419.45 330.545 422.876 331.688C426.302 332.83 429.348 328.261 431.252 330.545C433.155 332.83 429.729 337.779 435.44 340.825C441.15 343.87 439.247 345.393 443.815 345.013C448.384 344.632 444.577 346.535 451.049 345.013C457.521 343.49 454.094 341.967 454.094 337.779C454.094 333.591 452.952 331.688 449.145 331.688C445.338 331.688 450.287 327.88 444.957 326.738C439.627 325.596 447.242 323.312 441.912 319.505C436.582 315.698 440.77 312.271 435.44 309.606C430.11 306.941 440.389 304.276 427.825 299.327C438.485 293.997 425.541 284.86 419.45 287.144C417.927 284.479 416.023 282.195 417.927 279.53C418.561 278.515 420.44 276.56 422.876 276.865C425.922 277.246 425.922 273.439 431.252 271.916C436.582 270.393 437.343 265.444 433.536 262.779C429.729 260.114 426.683 257.829 427.825 253.642C428.967 249.454 420.592 259.352 420.592 248.312C420.592 237.271 419.83 246.027 416.785 238.032C413.739 230.037 422.876 235.367 422.876 230.037C422.876 224.707 416.785 225.088 424.018 215.57C431.252 206.052 423.257 206.052 417.927 199.58C413.663 194.403 411.582 194.123 411.074 194.631" stroke="#A3B6BE"/>
<path d="M140.393 219.759C141.535 221.028 143.134 225.165 140.393 231.561C137.652 237.957 143.566 241.332 146.865 242.221C145.977 243.49 145.114 246.409 148.769 247.932C153.337 249.835 146.484 251.358 152.957 252.881C159.429 254.404 154.479 254.404 152.957 258.972C151.434 263.541 156.002 265.825 151.053 263.921C146.104 262.018 147.627 266.206 144.962 266.586C142.297 266.967 143.058 264.302 139.251 266.206C135.444 268.109 140.393 268.109 138.87 272.297C137.347 276.485 140.774 275.724 137.347 279.531C133.921 283.338 139.251 283.338 139.251 286.383C139.251 289.429 139.251 293.617 133.921 290.571C128.591 287.526 128.21 289.048 126.687 284.861C123.642 281.434 119.073 285.241 116.408 278.389" stroke="#A3B6BE"/>
<path d="M52.0716 135.62C53.7214 133.463 55.5742 128.311 49.7873 124.961C42.5538 120.773 44.4574 120.011 45.9802 112.397C47.5031 104.783 46.7416 104.402 50.9295 102.879C55.1173 101.356 50.9295 98.3107 50.9295 91.8386C50.9295 85.3665 53.2137 86.5086 52.0716 81.5593C50.9295 76.6101 50.168 70.8994 45.9802 69.3765C41.7924 67.8537 33.7974 61.3816 39.8888 54.5287C45.9802 47.6759 50.5488 62.5237 56.6402 61.7623C62.7316 61.0009 68.823 56.4323 67.6808 52.2445C66.5387 48.0566 72.2494 56.0516 76.4372 47.2952C80.625 38.5388 84.4322 43.4881 89.3814 40.4424C94.3307 37.3967 95.0921 42.346 99.28 38.1581C103.468 33.9703 96.9957 34.7317 103.087 27.1175C109.178 19.5032 111.463 24.8332 114.508 19.5032C117.554 14.1732 115.651 11.889 122.884 15.6961C130.118 19.5032 125.168 17.5997 132.021 15.6961C138.874 13.7925 140.778 11.889 143.823 15.6961C146.869 19.5032 152.96 19.5032 159.052 19.5032C162.707 17.9804 161.59 22.6758 160.575 25.2139C159.813 27.1175 158.595 31.3053 159.813 32.8281C161.336 34.7317 162.478 39.681 162.478 42.7267C162.478 45.7724 164.382 41.9652 164.762 45.7724C165.143 49.5795 162.859 51.1023 165.905 51.4831C168.95 51.8638 162.478 56.4323 156.768 58.3359C158.29 62.5237 152.96 63.2851 152.96 66.3308C152.96 69.3765 146.108 71.6608 142.3 68.9958C138.493 66.3308 141.158 73.5644 135.448 73.5644C129.737 73.5644 131.26 78.8943 125.168 76.2294C119.077 73.5644 125.549 66.7115 118.696 67.473C111.843 68.2344 116.412 72.0415 113.747 72.4222C111.082 72.8029 110.701 74.7065 112.224 76.9908C113.747 79.2751 115.27 83.4629 114.889 86.5086C114.508 89.5543 117.935 88.0314 117.173 93.3614C116.412 98.6914 119.077 93.7421 122.884 98.6914C126.691 103.641 127.072 94.1228 131.641 97.1685C136.209 100.214 140.778 99.8335 140.778 103.641C140.778 107.448 142.681 104.783 143.443 106.686C144.204 108.59 141.92 112.397 143.443 112.397C144.965 112.397 146.108 109.351 148.011 110.493C149.915 111.636 152.96 110.113 154.864 112.397C156.768 114.681 151.057 112.778 152.96 116.204C154.864 119.631 157.529 114.301 160.194 114.681C162.859 115.062 162.098 116.204 165.143 116.204C168.189 116.204 163.62 118.108 167.047 118.869C170.473 119.631 167.808 116.585 170.473 117.727C173.138 118.869 176.184 117.727 176.945 119.631C177.707 121.534 170.854 124.961 174.661 130.291" stroke="#A3B6BE"/>
<path d="M158.285 19.8843C161.204 19.5035 166.813 16.3817 165.899 6.94004C170.468 3.89432 172.372 9.22431 172.372 9.22431C172.372 9.22431 173.666 6.3309 175.798 6.94004C177.321 11.5086 172.372 21.7878 172.372 21.7878C172.118 23.1838 172.448 26.5848 175.798 29.0213C179.986 32.067 178.082 24.4528 181.509 29.0213C184.935 33.5899 181.128 33.9706 183.031 35.8742C184.935 37.7777 186.839 40.062 186.077 41.9656C185.316 43.8691 190.646 42.3463 192.549 45.0113C194.453 47.6763 197.118 46.5341 202.067 47.2955C207.016 48.057 202.829 51.4834 206.255 51.8641C209.681 52.2448 209.301 46.5341 213.869 49.1991C218.438 51.8641 211.966 52.2448 215.773 55.2905C219.58 58.3362 212.727 59.859 215.773 61.0012C218.818 62.1433 218.057 56.4326 220.722 58.7169C223.387 61.0012 226.052 61.7626 226.813 64.0469C227.575 66.3312 223.768 65.9504 226.052 67.854C228.336 69.7576 228.336 67.0926 230.621 67.0926C232.905 67.0926 232.143 70.8997 233.666 70.8997C234.885 70.8997 236.966 70.8997 237.854 70.8997C237.854 72.5495 238.615 75.849 241.661 75.849C245.468 75.849 242.042 71.6611 243.184 69.7576C244.326 67.854 244.707 70.1383 246.23 68.6154C247.753 67.0926 244.707 65.189 247.753 65.189C250.798 65.189 248.514 66.3312 250.037 67.0926C251.56 67.854 251.179 65.5697 253.083 66.3312C254.986 67.0926 253.844 69.3769 259.174 67.854C264.504 66.3312 265.265 63.2855 267.93 61.7626C270.595 60.2398 269.072 62.1433 272.499 61.0012C275.925 59.859 269.834 58.3362 272.499 56.4326C275.164 54.5291 277.829 59.0976 280.875 56.4326C283.92 53.7677 282.778 50.3412 285.062 49.9605C287.347 49.5798 285.443 53.7677 288.489 53.7677C291.535 53.7677 292.296 54.1484 294.2 57.5748C296.103 61.0012 298.007 59.4783 299.149 61.7626C300.291 64.0469 301.052 65.5697 297.626 67.0926C294.2 68.6154 296.103 72.4226 299.91 71.6611C303.717 70.8997 299.529 75.849 302.194 75.849C304.859 75.849 307.905 73.5647 309.428 76.6104C310.951 79.6561 309.047 83.0825 310.57 83.4632C312.093 83.8439 315.9 82.7018 316.281 85.7475C316.662 88.7932 312.474 92.2196 314.377 95.2653C316.281 98.311 313.997 97.9303 316.281 101.357C318.565 104.783 320.469 102.499 321.23 104.783C321.992 107.067 320.849 113.54 325.799 113.92C330.748 114.301 332.271 113.54 331.509 106.687C336.078 104.783 333.032 108.59 336.459 108.59C339.885 108.59 336.839 103.641 339.124 102.499C341.408 101.357 341.408 104.783 343.311 104.783C345.215 104.783 343.692 99.8339 346.738 99.8339C349.784 99.8339 352.068 102.88 355.494 101.357C358.921 99.8339 356.256 97.5496 358.54 96.4074C360.824 95.2653 366.535 98.6917 366.535 95.2653C366.535 91.8389 362.728 91.4582 364.631 89.5546C366.535 87.6511 368.438 92.2196 370.342 89.5546C372.246 86.8896 376.053 86.1282 376.053 90.6968C376.053 95.2653 373.007 94.8846 374.53 99.8339C376.053 104.783 377.956 103.26 377.956 106.687C377.956 110.113 372.246 109.732 370.342 113.92C368.438 118.108 365.393 116.585 366.535 120.012C367.677 123.438 363.87 121.534 364.631 126.484C365.393 131.433 368.438 131.814 371.484 129.149C374.53 126.484 374.911 122.296 377.956 122.677C380.393 122.981 380.748 125.342 380.621 126.484C382.271 125.976 385.799 125.798 386.713 129.149C387.855 133.337 381.383 130.291 384.048 134.479C386.713 138.667 387.855 134.479 390.139 138.286C392.423 142.093 394.327 137.524 395.469 140.57C396.611 143.616 392.043 141.332 391.662 145.139C391.281 148.946 387.855 147.804 386.713 151.23C385.57 154.656 389.758 161.129 388.235 163.413C386.713 165.697 383.286 167.981 393.565 167.981C403.845 167.981 404.987 171.027 404.987 176.357C404.987 181.687 401.56 180.545 402.703 183.591C403.845 186.636 409.936 186.256 410.698 188.921C411.307 191.053 411.967 193.108 412.22 193.87C409.682 195.139 403.159 197.296 397.373 195.773C390.139 193.87 393.565 198.438 388.235 198.438C382.906 198.438 380.621 195.012 380.241 203.388C379.86 211.763 386.713 209.098 384.428 213.286C382.144 217.474 382.906 213.286 376.814 213.286C370.723 213.286 372.626 215.951 365.012 215.951C357.398 215.951 352.449 214.048 348.261 218.235C344.073 222.423 350.545 222.804 346.738 225.85C342.931 228.895 340.266 222.043 336.078 225.85C331.89 229.657 339.124 231.941 334.174 237.271C329.225 242.601 329.986 236.129 321.611 239.555C313.235 242.982 312.854 245.647 306.763 239.555C300.672 233.464 304.479 235.367 302.956 229.657C301.433 223.946 307.144 222.043 302.956 221.281C298.768 220.52 293.819 220.139 294.2 215.951C294.58 211.763 297.245 211.002 297.245 206.433C297.245 201.865 295.342 204.53 294.2 200.723C293.057 196.916 293.819 190.063 288.489 188.921C283.159 187.778 284.301 187.778 279.732 183.971C275.164 180.164 277.829 179.022 272.88 177.88C267.93 176.738 267.93 174.073 266.788 170.646C265.646 167.22 265.265 171.027 261.839 172.169C258.413 173.311 261.078 167.981 255.748 167.981C250.418 167.981 254.986 173.311 250.418 173.311C245.849 173.311 246.61 167.981 242.423 167.981C238.235 167.981 239.377 163.413 236.331 155.799C233.286 148.184 227.956 150.469 227.956 146.661C227.956 142.854 223.387 146.281 219.199 140.951C215.849 136.687 205.874 139.174 201.306 140.951" stroke="#A3B6BE"/>
<path d="M53.2041 222.423C54.8539 223.184 57.5443 225.24 55.1077 227.372C52.062 230.037 46.732 227.372 50.9199 233.844C55.1077 240.316 55.1077 241.078 55.1077 245.266C55.1077 249.453 60.057 247.169 60.057 250.976C60.057 254.783 56.2499 255.926 65.7677 262.398C75.2855 268.87 65.0062 273.819 73.0012 281.053C80.9962 288.286 77.189 292.855 75.6662 295.9C74.1433 298.946 80.2347 297.423 79.854 301.992C79.4733 306.56 80.6155 309.606 87.849 306.941C95.0825 304.276 89.7525 308.464 95.4632 306.941C101.174 305.418 95.4632 305.418 97.3668 301.992C99.2704 298.565 102.316 306.18 103.077 301.992C103.839 297.804 98.1282 298.946 99.6511 295.9C101.174 292.855 101.555 294.378 104.22 293.616C106.885 292.855 103.839 287.144 106.123 286.763C107.951 286.459 108.407 289.682 108.407 291.332L110.311 289.428C110.819 290.697 112.671 292.474 116.022 289.428C120.21 285.621 119.448 294.758 120.971 289.428C122.494 284.098 113.737 282.956 116.022 279.149C117.849 276.103 112.976 266.712 110.311 262.398C106.758 258.337 99.6511 248.692 99.6511 242.601C99.6511 236.509 98.8896 232.956 98.5089 231.941" stroke="#A3B6BE"/>
<path d="M111.074 294.378C111.988 292.855 109.932 291.967 108.79 291.713L110.5 290C110.667 290.333 111.4 291 113 291C115 291 116 288 118 288.5C120 289 119.5 291 120 291C120.5 291 122.5 288 120 285.5C117.5 283 114.5 282 116 279C116.667 280.333 118.4 283 120 283C122 283 125.5 283 126.5 285C127.5 287 128 288.5 130.5 289C133 289.5 135 293.5 138 291.5C141 289.5 140 285.5 139 284.5C138 283.5 135 283 136 281C137 279 139 279.5 139.5 276.5C140 273.5 138 276 138.5 274C139 272 140 271 140 270C140 269 137 268.5 138.5 267C140 265.5 142.5 265.5 144 267C145.5 268.5 146 263.5 148 263.5C149.6 263.5 152.222 264.288 153.333 264.683C154.856 266.51 153.968 272.804 153.333 275.723C155.491 275.723 159.958 276.409 160.567 279.15C161.328 282.576 160.567 282.576 162.47 282.957C164.374 283.338 163.613 286.764 163.613 290.571C163.613 294.378 174.273 291.713 174.273 294.378C174.273 297.043 170.465 296.662 171.988 299.327C173.511 301.992 171.988 301.992 171.988 305.8C171.988 309.607 179.603 305.8 179.603 310.368C179.603 314.937 175.034 313.795 171.988 316.46C168.943 319.124 174.273 322.932 171.988 322.932C169.704 322.932 170.846 321.409 167.42 321.409C163.993 321.409 165.135 320.267 163.613 320.267C162.09 320.267 163.613 322.932 159.806 322.932C155.998 322.932 159.044 319.124 153.333 319.124C148.765 319.124 148.13 321.663 148.384 322.932H140.77C140.008 319.505 137.343 323.312 135.059 324.074C132.775 324.835 131.252 319.505 135.44 319.124C139.628 318.744 136.582 313.033 133.536 311.891C130.491 310.749 132.394 315.698 129.729 315.698C127.064 315.698 130.11 311.891 128.206 311.891C126.303 311.891 128.206 315.317 126.303 315.317C124.399 315.317 126.303 311.51 124.399 311.51C122.496 311.51 125.922 314.175 122.876 313.795C119.831 313.414 121.734 308.465 119.831 308.465C117.927 308.465 116.404 313.414 114.881 311.891C113.359 310.368 116.785 309.987 116.785 307.703C116.785 305.419 114.501 306.18 112.597 304.657C110.694 303.135 114.501 304.277 111.074 299.327C107.648 294.378 109.932 296.282 111.074 294.378Z" stroke="#A3B6BE"/>
<path d="M172.747 301.992C173.128 302.119 173.965 302.069 174.27 300.85C174.651 299.327 174.27 301.231 176.173 301.231C178.077 301.231 176.935 300.089 178.458 300.47C179.981 300.85 178.458 301.992 180.742 301.992C183.026 301.992 180.361 303.896 181.503 305.419C182.417 306.637 187.722 310.749 190.26 312.652C193.052 313.541 198.712 315.774 199.016 317.602C199.397 319.886 201.301 317.982 203.965 318.363C206.63 318.744 205.869 321.789 209.295 321.409C212.722 321.028 211.199 318.744 213.483 318.363C215.768 317.982 212.722 320.267 215.387 320.267C218.052 320.267 217.29 317.221 219.575 317.221C221.859 317.221 219.955 318.363 221.859 318.363C223.763 318.363 222.62 315.317 224.905 315.317C227.189 315.317 224.524 316.84 227.95 316.84C231.377 316.84 233.28 305.038 237.087 303.135C240.133 301.612 241.148 301.231 241.275 301.231" stroke="#A3B6BE"/>
<path d="M135.442 328.641C135.442 325.596 138.996 323.819 140.772 323.311H148.5C148.333 322.208 149 319.9 153 319.5C158 319 155 323.311 159 323.311C163 323.311 162 320.5 164 320.5C166 320.5 164 322 167 322C170 322 170 324.123 172.5 323.311C175 322.5 170.5 320.5 171.5 318.5C172.5 316.5 172.5 316 177 314.5C181.5 313 181 307.5 177 307.5C173 307.5 171.5 306 173 302.5C174 301.5 174.5 302 174.5 300.5C175 302 177.5 302.5 178 301C179 302 179 303 181 302.5C182 303.5 179 304.5 181 306C182.6 307.2 188.097 311.074 190.646 312.861C189.884 313.807 188.361 316.382 188.361 319.124C188.361 322.55 190.646 317.601 190.646 322.55C190.646 327.499 188.361 322.931 188.361 327.499C188.361 332.068 192.93 328.261 193.311 332.829C193.691 337.398 189.884 330.926 190.265 335.494C190.646 340.063 187.6 336.636 187.6 340.444C187.6 344.251 195.595 337.398 195.214 340.444C194.834 343.489 192.169 340.824 192.549 344.631C192.93 348.438 197.118 340.824 199.021 345.012C200.925 349.2 192.169 349.581 201.686 352.246C211.204 354.911 204.351 357.195 210.062 356.814C214.631 356.51 216.027 359.987 216.153 361.763C217.549 362.017 220.037 363.439 218.818 367.093C217.296 371.662 223.006 365.19 220.341 370.139C217.676 375.088 217.296 370.901 215.392 372.423C213.488 373.946 216.534 374.708 215.392 377.373C214.25 380.038 213.488 377.373 211.204 378.515C208.92 379.657 212.727 381.56 210.443 382.322C208.158 383.083 207.397 380.038 201.686 381.56C195.976 383.083 203.209 385.748 197.879 389.555C192.549 393.363 199.783 394.885 189.504 397.17C185.316 393.743 191.026 386.89 187.6 385.748C184.174 384.606 190.265 391.078 183.031 387.652C175.798 384.225 183.793 378.895 179.224 378.515C175.569 378.21 175.925 374.835 176.559 373.185C174.402 376.104 169.402 380.723 166.661 375.85C163.234 369.758 165.138 369.758 159.427 372.423C153.717 375.088 162.473 368.236 154.859 367.855C147.244 367.474 156.001 362.906 149.909 362.525C143.818 362.144 147.244 360.241 140.772 357.956C134.3 355.672 135.442 357.195 138.488 351.865C141.534 346.535 136.965 346.535 136.965 343.109C136.965 339.682 143.437 339.682 139.63 338.159C135.823 336.636 136.585 335.875 136.965 333.21C137.346 330.545 135.442 332.449 135.442 328.641Z" stroke="#A3B6BE"/>
<path d="M281.642 395.647C283.164 393.109 286.743 387.576 288.875 385.749C291.54 383.465 286.591 386.13 287.733 381.561C288.875 376.992 290.017 377.373 291.159 380.419C292.302 383.465 293.444 381.561 294.967 376.231C296.489 370.901 295.728 372.424 289.637 372.424C283.545 372.424 285.829 364.048 289.637 364.048C293.444 364.048 296.87 369.759 299.535 367.475C302.2 365.19 294.967 365.952 297.251 362.145C299.535 358.337 292.682 357.957 294.967 354.53C297.251 351.104 296.109 356.434 299.535 354.53C302.961 352.627 296.489 350.723 300.677 348.439C304.865 346.155 302.2 344.251 305.246 341.205C308.291 338.16 306.388 340.825 309.434 339.683C312.479 338.54 309.053 335.114 313.621 334.353C318.19 333.591 318.571 330.165 321.236 334.353C323.901 338.54 325.424 337.398 328.089 331.307C330.754 325.216 331.134 333.591 336.845 331.307C342.556 329.023 336.083 328.261 342.175 325.977C348.266 323.693 344.84 327.881 349.028 327.5C353.216 327.119 347.505 325.596 351.693 322.551C355.881 319.505 353.596 324.835 356.642 323.693C359.688 322.551 358.546 319.886 360.83 319.505C362.657 319.2 364.383 317.601 365.018 316.84" stroke="#A3B6BE"/>
<path d="M18.1828 186.354C13.6142 179.444 8.28427 193.648 6 186.354C10.8224 183.411 19.4772 176.296 15.5178 171.382C10.5685 165.239 11.7107 159.481 18.1828 156.793C24.6549 154.106 25.0356 162.552 34.5534 147.963C42.1677 136.293 49.1474 134.911 51.6855 135.678C53.0814 136.19 56.787 138.212 60.4419 142.205C65.0104 147.196 55.1119 156.793 64.249 156.793C73.3861 156.793 73.0054 164.855 76.0511 162.552C79.0968 160.248 81.0003 164.855 82.9039 164.855C84.8075 164.855 86.711 159.481 82.9039 156.793C79.0968 154.106 81.0003 150.267 82.9039 147.963C84.8075 145.66 81.0003 142.205 86.711 142.205C92.4217 142.205 93.9446 134.143 96.2288 140.669C98.5131 147.196 98.8938 147.963 102.701 147.963C106.508 147.963 106.889 152.186 108.412 154.106C109.934 156.025 114.503 159.481 118.691 159.481C122.879 159.481 120.594 164.087 129.732 164.855C138.869 165.623 141.534 172.917 146.864 173.685C152.194 174.453 148.386 169.846 153.716 171.382C159.046 172.917 158.285 170.23 160.569 168.694C162.854 167.159 161.331 164.855 161.331 162.552C161.331 160.248 164.376 159.481 162.473 159.481C160.95 159.481 161.838 157.689 162.473 156.793L161.331 154.106C162.346 154.49 164.376 154.643 164.376 152.186C164.376 149.729 161.584 147.068 160.189 146.044C161.584 145.916 164.376 144.969 164.376 142.205C164.376 138.75 164.376 137.982 166.28 137.214C167.803 136.6 168.183 134.911 168.183 134.143C171.991 131.711 179.757 127.309 180.366 129.152C180.975 130.995 178.843 132.735 177.701 133.375H181.128C180.874 135.294 181.052 138.75 183.793 137.214C187.219 135.294 187.219 140.669 193.311 137.214C198.184 134.45 200.163 136.062 200.544 137.214C201.686 137.47 203.285 138.826 200.544 142.205C197.118 146.428 199.021 147.196 199.021 150.267C199.021 153.338 195.214 152.954 195.214 155.258C195.214 157.561 197.118 156.793 196.737 159.481C196.356 162.168 194.833 158.713 195.214 162.552C195.595 166.391 199.021 164.471 199.021 167.927C199.021 171.382 192.93 169.462 191.407 171.382C189.884 173.301 191.788 174.453 189.884 177.524C188.361 179.981 189.25 184.179 189.884 185.97C189.123 185.074 186.991 183.82 184.554 185.97C182.118 188.12 183.031 191.729 183.793 193.264C180.493 193.776 172.904 194.8 168.945 194.8C163.996 194.8 168.183 189.809 164.376 189.809C160.569 189.809 161.711 197.487 156.762 197.487C151.813 197.487 151.432 193.648 148.386 194.8C145.341 195.952 145.721 199.407 147.625 204.014C149.529 208.621 148.767 220.906 145.721 222.057C142.676 223.209 140.772 220.138 137.346 217.834C133.919 215.531 130.493 220.522 127.828 222.057C125.163 223.593 128.97 224.361 126.686 225.897C124.402 227.432 124.782 225.897 122.879 225.897C120.975 225.897 114.884 232.807 112.98 232.807C111.077 232.807 111.457 234.726 108.412 234.726C105.366 234.726 109.554 232.807 106.889 232.807C104.224 232.807 106.889 234.342 104.224 234.726C101.559 235.11 103.843 232.807 98.8938 232.807C93.9446 232.807 99.6553 250.467 94.3253 248.547C88.9953 246.627 84.046 237.414 81.0003 232.807C77.9547 228.2 74.5282 234.726 69.1983 225.897C63.8683 217.067 58.919 223.209 53.2083 223.209C47.4977 223.209 48.2591 213.995 46.3555 207.853C44.452 201.71 37.9798 202.478 32.2692 200.175C26.5585 197.871 27.3199 195.184 25.0356 192.497C22.7513 189.809 22.7513 193.264 18.1828 186.354Z" stroke="#A3B6BE"/>
</g>
<defs>
<filter id="filter0_f" x="0.40625" y="0.5" width="460.095" height="457.803" filterUnits="userSpaceOnUse" color-interpolation-filters="sRGB">
<feFlood flood-opacity="0" result="BackgroundImageFix"/>
<feBlend mode="normal" in="SourceGraphic" in2="BackgroundImageFix" result="shape"/>
<feGaussianBlur stdDeviation="2.5" result="effect1_foregroundBlur"/>
</filter>
</defs>
</svg>
