<svg width="451" height="449" viewBox="0 0 451 449" fill="none" xmlns="http://www.w3.org/2000/svg">
<g clip-path="url(#clip0)">
<path d="M215.724 363.998C215.85 363.49 216.79 362.246 219.531 361.333C222.957 360.19 222.196 360.571 223.719 357.525C225.241 354.48 225.622 358.287 228.668 354.48C231.714 350.673 231.714 348.769 236.663 352.576C241.612 356.383 244.658 363.236 236.663 365.52C246.181 366.663 236.663 367.043 240.089 371.993C243.516 376.942 242.754 372.373 246.561 374.657C250.368 376.942 244.277 383.795 248.084 385.698C251.891 387.602 253.033 383.414 255.698 384.937C258.363 386.46 253.033 389.886 257.602 389.886C262.17 389.886 263.313 381.51 270.165 384.937C275.648 387.678 276.764 390.394 276.638 391.409C276.891 392.678 278.389 395.749 282.348 397.881C287.298 400.546 279.303 400.165 280.825 403.972C282.348 407.779 285.775 403.211 287.298 407.779C288.82 412.348 288.44 413.109 284.252 413.49C280.064 413.871 285.013 416.536 280.825 416.536C276.638 416.536 285.394 425.292 291.485 423.008C292.627 431.384 289.201 429.099 280.825 434.429C272.45 439.759 268.262 442.044 262.932 442.424C257.602 442.805 261.409 446.993 256.46 447.754C251.511 448.516 255.318 440.14 250.368 440.14C245.419 440.14 252.272 443.566 248.084 445.089C243.896 446.612 238.947 448.135 238.566 445.851C238.186 443.566 245.419 442.044 243.516 437.094C241.612 432.145 237.805 447.754 234.378 442.424C230.952 437.094 232.475 442.424 230.191 440.901C227.906 439.379 229.81 434.81 224.861 438.617C219.911 442.424 219.531 433.287 216.104 432.906C213.363 432.602 210.394 433.541 209.251 434.049C209.886 433.033 210.774 430.318 209.251 427.577C207.348 424.15 197.83 426.815 197.83 421.104C197.83 415.394 205.064 420.724 204.683 408.16C204.302 395.597 191.739 391.79 185.267 392.17" stroke="#A3B6BE"/>
<path d="M178.408 187.728C178.027 189.123 177.951 191.915 180.692 191.915C183.433 191.915 183.865 194.961 183.738 196.484C182.342 197.118 180.235 198.92 182.977 201.052C184.626 201.433 188.002 203.413 188.307 208.286C188.687 214.377 194.017 215.139 193.256 218.565C192.494 221.992 193.256 223.134 202.393 222.753C211.53 222.372 215.337 236.459 213.814 240.647C222.571 239.885 227.52 250.545 225.236 261.205C222.951 271.865 226.758 265.393 226.758 272.246C226.758 279.099 227.52 285.571 232.088 285.951C235.743 286.256 236.149 292.931 235.896 296.231L240.845 301.18C243.129 299.53 248.84 296.916 253.408 299.657C259.119 303.083 253.789 293.946 262.165 292.804C270.54 291.662 263.688 290.139 267.875 283.667C272.063 277.195 270.54 283.667 275.87 277.956C281.2 272.246 276.251 273.388 272.825 265.774C269.398 258.159 272.825 257.017 272.825 253.21C272.825 249.403 274.348 247.499 280.058 244.073C282.342 242.702 283.485 243.692 285.388 244.073C284.5 242.043 283.561 237.449 286.911 235.317C291.099 232.652 283.104 237.601 289.957 237.22C290.591 236.586 292.317 235.317 294.145 235.317C296.429 235.317 295.667 238.362 297.952 237.22C299.779 236.306 299.728 233.54 299.475 232.271M285.769 244.454C286.911 244.327 289.424 244.53 290.337 246.357C291.48 248.642 289.576 248.261 292.241 250.926C294.906 253.591 294.525 255.114 293.002 258.921C291.48 262.728 296.048 260.063 296.048 264.631C296.048 269.2 293.383 275.672 298.713 275.672C304.043 275.672 301.378 280.241 304.043 283.667C306.708 287.093 311.277 288.997 311.657 290.52C312.038 292.043 310.515 292.804 317.368 292.043C324.221 291.281 322.317 288.997 326.886 289.378C331.454 289.758 325.744 292.043 332.977 292.043C340.211 292.043 332.977 294.708 336.023 295.088C339.069 295.469 339.83 296.992 337.926 299.657C336.023 302.322 341.353 304.606 345.541 303.845C349.729 303.083 347.444 301.941 350.871 301.941C354.297 301.941 348.967 303.464 352.013 304.606C355.059 305.748 357.343 302.703 357.724 306.129C358.104 309.556 355.059 306.51 355.059 309.556C355.059 311.992 358.104 312.094 359.627 311.84C360.896 310.317 364.119 307.728 366.861 309.556C370.287 311.84 368.764 316.408 371.81 316.408C374.856 316.408 377.521 314.885 378.282 316.408C379.043 317.931 377.901 324.403 382.851 324.403C387.8 324.403 386.277 319.454 395.414 320.596C404.551 321.738 398.84 325.545 404.551 325.545C410.262 325.545 414.45 325.545 417.876 326.688C421.302 327.83 424.348 323.261 426.252 325.545C428.155 327.83 424.729 332.779 430.44 335.825C436.15 338.87 434.247 340.393 438.815 340.013C443.384 339.632 439.577 341.535 446.049 340.013C452.521 338.49 449.094 336.967 449.094 332.779C449.094 328.591 447.952 326.688 444.145 326.688C440.338 326.688 445.287 322.88 439.957 321.738C434.627 320.596 442.242 318.312 436.912 314.505C431.582 310.698 435.77 307.271 430.44 304.606C425.11 301.941 435.389 299.276 422.825 294.327C433.485 288.997 420.541 279.86 414.45 282.144C412.927 279.479 411.023 277.195 412.927 274.53C413.561 273.515 415.44 271.56 417.876 271.865C420.922 272.246 420.922 268.439 426.252 266.916C431.582 265.393 432.343 260.444 428.536 257.779C424.729 255.114 421.683 252.829 422.825 248.642C423.967 244.454 415.592 254.352 415.592 243.312C415.592 232.271 414.83 241.027 411.785 233.032C408.739 225.037 417.876 230.367 417.876 225.037C417.876 219.707 411.785 220.088 419.018 210.57C426.252 201.052 418.257 201.052 412.927 194.58C408.663 189.403 406.582 189.123 406.074 189.631" stroke="#A3B6BE"/>
<path d="M135.393 214.759C136.535 216.028 138.134 220.165 135.393 226.561C132.652 232.957 138.566 236.332 141.865 237.221C140.977 238.49 140.114 241.409 143.769 242.932C148.337 244.835 141.484 246.358 147.957 247.881C154.429 249.404 149.479 249.404 147.957 253.972C146.434 258.541 151.002 260.825 146.053 258.921C141.104 257.018 142.627 261.206 139.962 261.586C137.297 261.967 138.058 259.302 134.251 261.206C130.444 263.109 135.393 263.109 133.87 267.297C132.347 271.485 135.774 270.724 132.347 274.531C128.921 278.338 134.251 278.338 134.251 281.383C134.251 284.429 134.251 288.617 128.921 285.571C123.591 282.526 123.21 284.048 121.687 279.861C118.642 276.434 114.073 280.241 111.408 273.389" stroke="#A3B6BE"/>
<path d="M47.0716 130.62C48.7214 128.463 50.5742 123.311 44.7873 119.961C37.5538 115.773 39.4574 115.011 40.9802 107.397C42.5031 99.7828 41.7416 99.4021 45.9295 97.8792C50.1173 96.3564 45.9295 93.3107 45.9295 86.8386C45.9295 80.3665 48.2137 81.5086 47.0716 76.5593C45.9295 71.6101 45.168 65.8994 40.9802 64.3765C36.7924 62.8537 28.7974 56.3816 34.8888 49.5287C40.9802 42.6759 45.5488 57.5237 51.6402 56.7623C57.7316 56.0009 63.823 51.4323 62.6808 47.2445C61.5387 43.0566 67.2494 51.0516 71.4372 42.2952C75.625 33.5388 79.4322 38.4881 84.3814 35.4424C89.3307 32.3967 90.0921 37.346 94.28 33.1581C98.4678 28.9703 91.9957 29.7317 98.0871 22.1175C104.178 14.5032 106.463 19.8332 109.508 14.5032C112.554 9.17325 110.651 6.88897 117.884 10.6961C125.118 14.5032 120.168 12.5997 127.021 10.6961C133.874 8.79252 135.778 6.88897 138.823 10.6961C141.869 14.5032 147.96 14.5032 154.052 14.5032C157.707 12.9804 156.59 17.6758 155.575 20.2139C154.813 22.1175 153.595 26.3053 154.813 27.8281C156.336 29.7317 157.478 34.681 157.478 37.7267C157.478 40.7724 159.382 36.9652 159.762 40.7724C160.143 44.5795 157.859 46.1023 160.905 46.4831C163.95 46.8638 157.478 51.4323 151.768 53.3359C153.29 57.5237 147.96 58.2851 147.96 61.3308C147.96 64.3765 141.108 66.6608 137.3 63.9958C133.493 61.3308 136.158 68.5644 130.448 68.5644C124.737 68.5644 126.26 73.8943 120.168 71.2294C114.077 68.5644 120.549 61.7115 113.696 62.473C106.843 63.2344 111.412 67.0415 108.747 67.4222C106.082 67.8029 105.701 69.7065 107.224 71.9908C108.747 74.2751 110.27 78.4629 109.889 81.5086C109.508 84.5543 112.935 83.0314 112.173 88.3614C111.412 93.6914 114.077 88.7421 117.884 93.6914C121.691 98.6407 122.072 89.1228 126.641 92.1685C131.209 95.2142 135.778 94.8335 135.778 98.6407C135.778 102.448 137.681 99.7828 138.443 101.686C139.204 103.59 136.92 107.397 138.443 107.397C139.965 107.397 141.108 104.351 143.011 105.493C144.915 106.636 147.96 105.113 149.864 107.397C151.768 109.681 146.057 107.778 147.96 111.204C149.864 114.631 152.529 109.301 155.194 109.681C157.859 110.062 157.098 111.204 160.143 111.204C163.189 111.204 158.62 113.108 162.047 113.869C165.473 114.631 162.808 111.585 165.473 112.727C168.138 113.869 171.184 112.727 171.945 114.631C172.707 116.534 165.854 119.961 169.661 125.291" stroke="#A3B6BE"/>
<path d="M153.285 14.8843C156.204 14.5035 161.813 11.3817 160.899 1.94004C165.468 -1.10568 167.372 4.22431 167.372 4.22431C167.372 4.22431 168.666 1.3309 170.798 1.94004C172.321 6.50857 167.372 16.7878 167.372 16.7878C167.118 18.1838 167.448 21.5848 170.798 24.0213C174.986 27.067 173.082 19.4528 176.509 24.0213C179.935 28.5899 176.128 28.9706 178.031 30.8742C179.935 32.7777 181.839 35.062 181.077 36.9656C180.316 38.8691 185.646 37.3463 187.549 40.0113C189.453 42.6763 192.118 41.5341 197.067 42.2955C202.016 43.057 197.829 46.4834 201.255 46.8641C204.681 47.2448 204.301 41.5341 208.869 44.1991C213.438 46.8641 206.966 47.2448 210.773 50.2905C214.58 53.3362 207.727 54.859 210.773 56.0012C213.818 57.1433 213.057 51.4326 215.722 53.7169C218.387 56.0012 221.052 56.7626 221.813 59.0469C222.575 61.3312 218.768 60.9504 221.052 62.854C223.336 64.7576 223.336 62.0926 225.621 62.0926C227.905 62.0926 227.143 65.8997 228.666 65.8997C229.885 65.8997 231.966 65.8997 232.854 65.8997C232.854 67.5495 233.615 70.849 236.661 70.849C240.468 70.849 237.042 66.6611 238.184 64.7576C239.326 62.854 239.707 65.1383 241.23 63.6154C242.753 62.0926 239.707 60.189 242.753 60.189C245.798 60.189 243.514 61.3312 245.037 62.0926C246.56 62.854 246.179 60.5697 248.083 61.3312C249.986 62.0926 248.844 64.3769 254.174 62.854C259.504 61.3312 260.265 58.2855 262.93 56.7626C265.595 55.2398 264.072 57.1433 267.499 56.0012C270.925 54.859 264.834 53.3362 267.499 51.4326C270.164 49.5291 272.829 54.0976 275.875 51.4326C278.92 48.7677 277.778 45.3412 280.062 44.9605C282.347 44.5798 280.443 48.7677 283.489 48.7677C286.535 48.7677 287.296 49.1484 289.2 52.5748C291.103 56.0012 293.007 54.4783 294.149 56.7626C295.291 59.0469 296.052 60.5697 292.626 62.0926C289.2 63.6154 291.103 67.4226 294.91 66.6611C298.717 65.8997 294.529 70.849 297.194 70.849C299.859 70.849 302.905 68.5647 304.428 71.6104C305.951 74.6561 304.047 78.0825 305.57 78.4632C307.093 78.8439 310.9 77.7018 311.281 80.7475C311.662 83.7932 307.474 87.2196 309.377 90.2653C311.281 93.311 308.997 92.9303 311.281 96.3567C313.565 99.7831 315.469 97.4988 316.23 99.7831C316.992 102.067 315.849 108.54 320.799 108.92C325.748 109.301 327.271 108.54 326.509 101.687C331.078 99.7831 328.032 103.59 331.459 103.59C334.885 103.59 331.839 98.641 334.124 97.4988C336.408 96.3567 336.408 99.7831 338.311 99.7831C340.215 99.7831 338.692 94.8339 341.738 94.8339C344.784 94.8339 347.068 97.8796 350.494 96.3567C353.921 94.8339 351.256 92.5496 353.54 91.4074C355.824 90.2653 361.535 93.6917 361.535 90.2653C361.535 86.8389 357.728 86.4582 359.631 84.5546C361.535 82.6511 363.438 87.2196 365.342 84.5546C367.246 81.8896 371.053 81.1282 371.053 85.6968C371.053 90.2653 368.007 89.8846 369.53 94.8339C371.053 99.7831 372.956 98.2603 372.956 101.687C372.956 105.113 367.246 104.732 365.342 108.92C363.438 113.108 360.393 111.585 361.535 115.012C362.677 118.438 358.87 116.534 359.631 121.484C360.393 126.433 363.438 126.814 366.484 124.149C369.53 121.484 369.911 117.296 372.956 117.677C375.393 117.981 375.748 120.342 375.621 121.484C377.271 120.976 380.799 120.798 381.713 124.149C382.855 128.337 376.383 125.291 379.048 129.479C381.713 133.667 382.855 129.479 385.139 133.286C387.423 137.093 389.327 132.524 390.469 135.57C391.611 138.616 387.043 136.332 386.662 140.139C386.281 143.946 382.855 142.804 381.713 146.23C380.57 149.656 384.758 156.129 383.235 158.413C381.713 160.697 378.286 162.981 388.565 162.981C398.845 162.981 399.987 166.027 399.987 171.357C399.987 176.687 396.56 175.545 397.703 178.591C398.845 181.636 404.936 181.256 405.698 183.921C406.307 186.053 406.967 188.108 407.22 188.87C404.682 190.139 398.159 192.296 392.373 190.773C385.139 188.87 388.565 193.438 383.235 193.438C377.906 193.438 375.621 190.012 375.241 198.388C374.86 206.763 381.713 204.098 379.428 208.286C377.144 212.474 377.906 208.286 371.814 208.286C365.723 208.286 367.626 210.951 360.012 210.951C352.398 210.951 347.449 209.048 343.261 213.235C339.073 217.423 345.545 217.804 341.738 220.85C337.931 223.895 335.266 217.043 331.078 220.85C326.89 224.657 334.124 226.941 329.174 232.271C324.225 237.601 324.986 231.129 316.611 234.555C308.235 237.982 307.854 240.647 301.763 234.555C295.672 228.464 299.479 230.367 297.956 224.657C296.433 218.946 302.144 217.043 297.956 216.281C293.768 215.52 288.819 215.139 289.2 210.951C289.58 206.763 292.245 206.002 292.245 201.433C292.245 196.865 290.342 199.53 289.2 195.723C288.057 191.916 288.819 185.063 283.489 183.921C278.159 182.778 279.301 182.778 274.732 178.971C270.164 175.164 272.829 174.022 267.88 172.88C262.93 171.738 262.93 169.073 261.788 165.646C260.646 162.22 260.265 166.027 256.839 167.169C253.413 168.311 256.078 162.981 250.748 162.981C245.418 162.981 249.986 168.311 245.418 168.311C240.849 168.311 241.61 162.981 237.423 162.981C233.235 162.981 234.377 158.413 231.331 150.799C228.286 143.184 222.956 145.469 222.956 141.661C222.956 137.854 218.387 141.281 214.199 135.951C210.849 131.687 200.874 134.174 196.306 135.951" stroke="#A3B6BE"/>
<path d="M48.2041 217.423C49.8539 218.184 52.5443 220.24 50.1077 222.372C47.062 225.037 41.732 222.372 45.9199 228.844C50.1077 235.316 50.1077 236.078 50.1077 240.266C50.1077 244.453 55.057 242.169 55.057 245.976C55.057 249.783 51.2499 250.926 60.7677 257.398C70.2855 263.87 60.0062 268.819 68.0012 276.053C75.9962 283.286 72.189 287.855 70.6662 290.9C69.1433 293.946 75.2347 292.423 74.854 296.992C74.4733 301.56 75.6155 304.606 82.849 301.941C90.0825 299.276 84.7525 303.464 90.4632 301.941C96.1739 300.418 90.4632 300.418 92.3668 296.992C94.2704 293.565 97.3161 301.18 98.0775 296.992C98.8389 292.804 93.1282 293.946 94.6511 290.9C96.1739 287.855 96.5546 289.378 99.2196 288.616C101.885 287.855 98.8389 282.144 101.123 281.763C102.951 281.459 103.407 284.682 103.407 286.332L105.311 284.428C105.819 285.697 107.671 287.474 111.022 284.428C115.21 280.621 114.448 289.758 115.971 284.428C117.494 279.098 108.737 277.956 111.022 274.149C112.849 271.103 107.976 261.712 105.311 257.398C101.758 253.337 94.6511 243.692 94.6511 237.601C94.6511 231.509 93.8896 227.956 93.5089 226.941" stroke="#A3B6BE"/>
<path d="M106.074 289.378C106.988 287.855 104.932 286.967 103.79 286.713L105.5 285C105.667 285.333 106.4 286 108 286C110 286 111 283 113 283.5C115 284 114.5 286 115 286C115.5 286 117.5 283 115 280.5C112.5 278 109.5 277 111 274C111.667 275.333 113.4 278 115 278C117 278 120.5 278 121.5 280C122.5 282 123 283.5 125.5 284C128 284.5 130 288.5 133 286.5C136 284.5 135 280.5 134 279.5C133 278.5 130 278 131 276C132 274 134 274.5 134.5 271.5C135 268.5 133 271 133.5 269C134 267 135 266 135 265C135 264 132 263.5 133.5 262C135 260.5 137.5 260.5 139 262C140.5 263.5 141 258.5 143 258.5C144.6 258.5 147.222 259.288 148.333 259.683C149.856 261.51 148.968 267.804 148.333 270.723C150.491 270.723 154.958 271.409 155.567 274.15C156.328 277.576 155.567 277.576 157.47 277.957C159.374 278.338 158.613 281.764 158.613 285.571C158.613 289.378 169.273 286.713 169.273 289.378C169.273 292.043 165.465 291.662 166.988 294.327C168.511 296.992 166.988 296.992 166.988 300.8C166.988 304.607 174.603 300.8 174.603 305.368C174.603 309.937 170.034 308.795 166.988 311.46C163.943 314.124 169.273 317.932 166.988 317.932C164.704 317.932 165.846 316.409 162.42 316.409C158.993 316.409 160.135 315.267 158.613 315.267C157.09 315.267 158.613 317.932 154.806 317.932C150.998 317.932 154.044 314.124 148.333 314.124C143.765 314.124 143.13 316.663 143.384 317.932H135.77C135.008 314.505 132.343 318.312 130.059 319.074C127.775 319.835 126.252 314.505 130.44 314.124C134.628 313.744 131.582 308.033 128.536 306.891C125.491 305.749 127.394 310.698 124.729 310.698C122.064 310.698 125.11 306.891 123.206 306.891C121.303 306.891 123.206 310.317 121.303 310.317C119.399 310.317 121.303 306.51 119.399 306.51C117.496 306.51 120.922 309.175 117.876 308.795C114.831 308.414 116.734 303.465 114.831 303.465C112.927 303.465 111.404 308.414 109.881 306.891C108.359 305.368 111.785 304.987 111.785 302.703C111.785 300.419 109.501 301.18 107.597 299.657C105.694 298.135 109.501 299.277 106.074 294.327C102.648 289.378 104.932 291.282 106.074 289.378Z" stroke="#A3B6BE"/>
<path d="M167.747 296.992C168.128 297.119 168.965 297.069 169.27 295.85C169.651 294.327 169.27 296.231 171.173 296.231C173.077 296.231 171.935 295.089 173.458 295.47C174.981 295.85 173.458 296.992 175.742 296.992C178.026 296.992 175.361 298.896 176.503 300.419C177.417 301.637 182.722 305.749 185.26 307.652C188.052 308.541 193.712 310.774 194.016 312.602C194.397 314.886 196.301 312.982 198.965 313.363C201.63 313.744 200.869 316.789 204.295 316.409C207.722 316.028 206.199 313.744 208.483 313.363C210.768 312.982 207.722 315.267 210.387 315.267C213.052 315.267 212.29 312.221 214.575 312.221C216.859 312.221 214.955 313.363 216.859 313.363C218.763 313.363 217.62 310.317 219.905 310.317C222.189 310.317 219.524 311.84 222.95 311.84C226.377 311.84 228.28 300.038 232.087 298.135C235.133 296.612 236.148 296.231 236.275 296.231" stroke="#A3B6BE"/>
<path d="M130.442 323.641C130.442 320.596 133.996 318.819 135.772 318.311H143.5C143.333 317.208 144 314.9 148 314.5C153 314 150 318.311 154 318.311C158 318.311 157 315.5 159 315.5C161 315.5 159 317 162 317C165 317 165 319.123 167.5 318.311C170 317.5 165.5 315.5 166.5 313.5C167.5 311.5 167.5 311 172 309.5C176.5 308 176 302.5 172 302.5C168 302.5 166.5 301 168 297.5C169 296.5 169.5 297 169.5 295.5C170 297 172.5 297.5 173 296C174 297 174 298 176 297.5C177 298.5 174 299.5 176 301C177.6 302.2 183.097 306.074 185.646 307.861C184.884 308.807 183.361 311.382 183.361 314.124C183.361 317.55 185.646 312.601 185.646 317.55C185.646 322.499 183.361 317.931 183.361 322.499C183.361 327.068 187.93 323.261 188.311 327.829C188.691 332.398 184.884 325.926 185.265 330.494C185.646 335.063 182.6 331.636 182.6 335.444C182.6 339.251 190.595 332.398 190.214 335.444C189.834 338.489 187.169 335.824 187.549 339.631C187.93 343.438 192.118 335.824 194.021 340.012C195.925 344.2 187.169 344.581 196.686 347.246C206.204 349.911 199.351 352.195 205.062 351.814C209.631 351.51 211.027 354.987 211.153 356.763C212.549 357.017 215.037 358.439 213.818 362.093C212.296 366.662 218.006 360.19 215.341 365.139C212.676 370.088 212.296 365.901 210.392 367.423C208.488 368.946 211.534 369.708 210.392 372.373C209.25 375.038 208.488 372.373 206.204 373.515C203.92 374.657 207.727 376.56 205.443 377.322C203.158 378.083 202.397 375.038 196.686 376.56C190.976 378.083 198.209 380.748 192.879 384.555C187.549 388.363 194.783 389.885 184.504 392.17C180.316 388.743 186.026 381.89 182.6 380.748C179.174 379.606 185.265 386.078 178.031 382.652C170.798 379.225 178.793 373.895 174.224 373.515C170.569 373.21 170.925 369.835 171.559 368.185C169.402 371.104 164.402 375.723 161.661 370.85C158.234 364.758 160.138 364.758 154.427 367.423C148.717 370.088 157.473 363.236 149.859 362.855C142.244 362.474 151.001 357.906 144.909 357.525C138.818 357.144 142.244 355.241 135.772 352.956C129.3 350.672 130.442 352.195 133.488 346.865C136.534 341.535 131.965 341.535 131.965 338.109C131.965 334.682 138.437 334.682 134.63 333.159C130.823 331.636 131.585 330.875 131.965 328.21C132.346 325.545 130.442 327.449 130.442 323.641Z" stroke="#A3B6BE"/>
<path d="M276.642 390.647C278.164 388.109 281.743 382.576 283.875 380.749C286.54 378.465 281.591 381.13 282.733 376.561C283.875 371.992 285.017 372.373 286.159 375.419C287.302 378.465 288.444 376.561 289.967 371.231C291.489 365.901 290.728 367.424 284.637 367.424C278.545 367.424 280.829 359.048 284.637 359.048C288.444 359.048 291.87 364.759 294.535 362.475C297.2 360.19 289.967 360.952 292.251 357.145C294.535 353.337 287.682 352.957 289.967 349.53C292.251 346.104 291.109 351.434 294.535 349.53C297.961 347.627 291.489 345.723 295.677 343.439C299.865 341.155 297.2 339.251 300.246 336.205C303.291 333.16 301.388 335.825 304.434 334.683C307.479 333.54 304.053 330.114 308.621 329.353C313.19 328.591 313.571 325.165 316.236 329.353C318.901 333.54 320.424 332.398 323.089 326.307C325.754 320.216 326.134 328.591 331.845 326.307C337.556 324.023 331.083 323.261 337.175 320.977C343.266 318.693 339.84 322.881 344.028 322.5C348.216 322.119 342.505 320.596 346.693 317.551C350.881 314.505 348.596 319.835 351.642 318.693C354.688 317.551 353.546 314.886 355.83 314.505C357.657 314.2 359.383 312.601 360.018 311.84" stroke="#A3B6BE"/>
<path d="M13.1828 181.354C8.61425 174.444 3.28427 188.648 1 181.354C5.82236 178.411 14.4772 171.296 10.5178 166.382C5.56855 160.239 6.71069 154.481 13.1828 151.793C19.6549 149.106 20.0356 157.552 29.5534 142.963C37.1677 131.293 44.1474 129.911 46.6855 130.678C48.0814 131.19 51.787 133.212 55.4419 137.205C60.0104 142.196 50.1119 151.793 59.249 151.793C68.3861 151.793 68.0054 159.855 71.0511 157.552C74.0968 155.248 76.0003 159.855 77.9039 159.855C79.8075 159.855 81.711 154.481 77.9039 151.793C74.0968 149.106 76.0003 145.267 77.9039 142.963C79.8075 140.66 76.0003 137.205 81.711 137.205C87.4217 137.205 88.9446 129.143 91.2288 135.669C93.5131 142.196 93.8938 142.963 97.701 142.963C101.508 142.963 101.889 147.186 103.412 149.106C104.934 151.025 109.503 154.481 113.691 154.481C117.879 154.481 115.594 159.087 124.732 159.855C133.869 160.623 136.534 167.917 141.864 168.685C147.194 169.453 143.386 164.846 148.716 166.382C154.046 167.917 153.285 165.23 155.569 163.694C157.854 162.159 156.331 159.855 156.331 157.552C156.331 155.248 159.376 154.481 157.473 154.481C155.95 154.481 156.838 152.689 157.473 151.793L156.331 149.106C157.346 149.49 159.376 149.643 159.376 147.186C159.376 144.729 156.584 142.068 155.189 141.044C156.584 140.916 159.376 139.969 159.376 137.205C159.376 133.75 159.376 132.982 161.28 132.214C162.803 131.6 163.183 129.911 163.183 129.143C166.991 126.711 174.757 122.309 175.366 124.152C175.975 125.995 173.843 127.735 172.701 128.375H176.128C175.874 130.294 176.052 133.75 178.793 132.214C182.219 130.294 182.219 135.669 188.311 132.214C193.184 129.45 195.163 131.062 195.544 132.214C196.686 132.47 198.285 133.826 195.544 137.205C192.118 141.428 194.021 142.196 194.021 145.267C194.021 148.338 190.214 147.954 190.214 150.258C190.214 152.561 192.118 151.793 191.737 154.481C191.356 157.168 189.833 153.713 190.214 157.552C190.595 161.391 194.021 159.471 194.021 162.927C194.021 166.382 187.93 164.462 186.407 166.382C184.884 168.301 186.788 169.453 184.884 172.524C183.361 174.981 184.25 179.179 184.884 180.97C184.123 180.074 181.991 178.82 179.554 180.97C177.118 183.12 178.031 186.729 178.793 188.264C175.493 188.776 167.904 189.8 163.945 189.8C158.996 189.8 163.183 184.809 159.376 184.809C155.569 184.809 156.711 192.487 151.762 192.487C146.813 192.487 146.432 188.648 143.386 189.8C140.341 190.952 140.721 194.407 142.625 199.014C144.529 203.621 143.767 215.906 140.721 217.057C137.676 218.209 135.772 215.138 132.346 212.834C128.919 210.531 125.493 215.522 122.828 217.057C120.163 218.593 123.97 219.361 121.686 220.897C119.402 222.432 119.782 220.897 117.879 220.897C115.975 220.897 109.884 227.807 107.98 227.807C106.077 227.807 106.457 229.726 103.412 229.726C100.366 229.726 104.554 227.807 101.889 227.807C99.2238 227.807 101.889 229.342 99.2238 229.726C96.5588 230.11 98.8431 227.807 93.8938 227.807C88.9446 227.807 94.6553 245.467 89.3253 243.547C83.9953 241.627 79.046 232.414 76.0003 227.807C72.9547 223.2 69.5282 229.726 64.1983 220.897C58.8683 212.067 53.919 218.209 48.2083 218.209C42.4977 218.209 43.2591 208.995 41.3555 202.853C39.452 196.71 32.9798 197.478 27.2692 195.175C21.5585 192.871 22.3199 190.184 20.0356 187.497C17.7513 184.809 17.7513 188.264 13.1828 181.354Z" stroke="#A3B6BE"/>
<g filter="url(#filter0_f)">
<path d="M215.724 363.998C215.85 363.49 216.79 362.246 219.531 361.333C222.957 360.19 222.196 360.571 223.719 357.525C225.241 354.48 225.622 358.287 228.668 354.48C231.714 350.673 231.714 348.769 236.663 352.576C241.612 356.383 244.658 363.236 236.663 365.52C246.181 366.663 236.663 367.043 240.089 371.993C243.516 376.942 242.754 372.373 246.561 374.657C250.368 376.942 244.277 383.795 248.084 385.698C251.891 387.602 253.033 383.414 255.698 384.937C258.363 386.46 253.033 389.886 257.602 389.886C262.17 389.886 263.313 381.51 270.165 384.937C275.648 387.678 276.764 390.394 276.638 391.409C276.891 392.678 278.389 395.749 282.348 397.881C287.298 400.546 279.303 400.165 280.825 403.972C282.348 407.779 285.775 403.211 287.298 407.779C288.82 412.348 288.44 413.109 284.252 413.49C280.064 413.871 285.013 416.536 280.825 416.536C276.638 416.536 285.394 425.292 291.485 423.008C292.627 431.384 289.201 429.099 280.825 434.429C272.45 439.759 268.262 442.044 262.932 442.424C257.602 442.805 261.409 446.993 256.46 447.754C251.511 448.516 255.318 440.14 250.368 440.14C245.419 440.14 252.272 443.566 248.084 445.089C243.896 446.612 238.947 448.135 238.566 445.851C238.186 443.566 245.419 442.044 243.516 437.094C241.612 432.145 237.805 447.754 234.378 442.424C230.952 437.094 232.475 442.424 230.191 440.901C227.906 439.379 229.81 434.81 224.861 438.617C219.911 442.424 219.531 433.287 216.104 432.906C213.363 432.602 210.394 433.541 209.251 434.049C209.886 433.033 210.774 430.318 209.251 427.577C207.348 424.15 197.83 426.815 197.83 421.104C197.83 415.394 205.064 420.724 204.683 408.16C204.302 395.597 191.739 391.79 185.267 392.17" stroke="#A3B6BE"/>
<path d="M178.408 187.728C178.027 189.123 177.951 191.915 180.692 191.915C183.433 191.915 183.865 194.961 183.738 196.484C182.342 197.118 180.235 198.92 182.977 201.052C184.626 201.433 188.002 203.413 188.307 208.286C188.687 214.377 194.017 215.139 193.256 218.565C192.494 221.992 193.256 223.134 202.393 222.753C211.53 222.372 215.337 236.459 213.814 240.647C222.571 239.885 227.52 250.545 225.236 261.205C222.951 271.865 226.758 265.393 226.758 272.246C226.758 279.099 227.52 285.571 232.088 285.951C235.743 286.256 236.149 292.931 235.896 296.231L240.845 301.18C243.129 299.53 248.84 296.916 253.408 299.657C259.119 303.083 253.789 293.946 262.165 292.804C270.54 291.662 263.688 290.139 267.875 283.667C272.063 277.195 270.54 283.667 275.87 277.956C281.2 272.246 276.251 273.388 272.825 265.774C269.398 258.159 272.825 257.017 272.825 253.21C272.825 249.403 274.348 247.499 280.058 244.073C282.342 242.702 283.485 243.692 285.388 244.073C284.5 242.043 283.561 237.449 286.911 235.317C291.099 232.652 283.104 237.601 289.957 237.22C290.591 236.586 292.317 235.317 294.145 235.317C296.429 235.317 295.667 238.362 297.952 237.22C299.779 236.306 299.728 233.54 299.475 232.271M285.769 244.454C286.911 244.327 289.424 244.53 290.337 246.357C291.48 248.642 289.576 248.261 292.241 250.926C294.906 253.591 294.525 255.114 293.002 258.921C291.48 262.728 296.048 260.063 296.048 264.631C296.048 269.2 293.383 275.672 298.713 275.672C304.043 275.672 301.378 280.241 304.043 283.667C306.708 287.093 311.277 288.997 311.657 290.52C312.038 292.043 310.515 292.804 317.368 292.043C324.221 291.281 322.317 288.997 326.886 289.378C331.454 289.758 325.744 292.043 332.977 292.043C340.211 292.043 332.977 294.708 336.023 295.088C339.069 295.469 339.83 296.992 337.926 299.657C336.023 302.322 341.353 304.606 345.541 303.845C349.729 303.083 347.444 301.941 350.871 301.941C354.297 301.941 348.967 303.464 352.013 304.606C355.059 305.748 357.343 302.703 357.724 306.129C358.104 309.556 355.059 306.51 355.059 309.556C355.059 311.992 358.104 312.094 359.627 311.84C360.896 310.317 364.119 307.728 366.861 309.556C370.287 311.84 368.764 316.408 371.81 316.408C374.856 316.408 377.521 314.885 378.282 316.408C379.043 317.931 377.901 324.403 382.851 324.403C387.8 324.403 386.277 319.454 395.414 320.596C404.551 321.738 398.84 325.545 404.551 325.545C410.262 325.545 414.45 325.545 417.876 326.688C421.302 327.83 424.348 323.261 426.252 325.545C428.155 327.83 424.729 332.779 430.44 335.825C436.15 338.87 434.247 340.393 438.815 340.013C443.384 339.632 439.577 341.535 446.049 340.013C452.521 338.49 449.094 336.967 449.094 332.779C449.094 328.591 447.952 326.688 444.145 326.688C440.338 326.688 445.287 322.88 439.957 321.738C434.627 320.596 442.242 318.312 436.912 314.505C431.582 310.698 435.77 307.271 430.44 304.606C425.11 301.941 435.389 299.276 422.825 294.327C433.485 288.997 420.541 279.86 414.45 282.144C412.927 279.479 411.023 277.195 412.927 274.53C413.561 273.515 415.44 271.56 417.876 271.865C420.922 272.246 420.922 268.439 426.252 266.916C431.582 265.393 432.343 260.444 428.536 257.779C424.729 255.114 421.683 252.829 422.825 248.642C423.967 244.454 415.592 254.352 415.592 243.312C415.592 232.271 414.83 241.027 411.785 233.032C408.739 225.037 417.876 230.367 417.876 225.037C417.876 219.707 411.785 220.088 419.018 210.57C426.252 201.052 418.257 201.052 412.927 194.58C408.663 189.403 406.582 189.123 406.074 189.631" stroke="#A3B6BE"/>
<path d="M135.393 214.759C136.535 216.028 138.134 220.165 135.393 226.561C132.652 232.957 138.566 236.332 141.865 237.221C140.977 238.49 140.114 241.409 143.769 242.932C148.337 244.835 141.484 246.358 147.957 247.881C154.429 249.404 149.479 249.404 147.957 253.972C146.434 258.541 151.002 260.825 146.053 258.921C141.104 257.018 142.627 261.206 139.962 261.586C137.297 261.967 138.058 259.302 134.251 261.206C130.444 263.109 135.393 263.109 133.87 267.297C132.347 271.485 135.774 270.724 132.347 274.531C128.921 278.338 134.251 278.338 134.251 281.383C134.251 284.429 134.251 288.617 128.921 285.571C123.591 282.526 123.21 284.048 121.687 279.861C118.642 276.434 114.073 280.241 111.408 273.389" stroke="#A3B6BE"/>
<path d="M47.0716 130.62C48.7214 128.463 50.5742 123.311 44.7873 119.961C37.5538 115.773 39.4574 115.011 40.9802 107.397C42.5031 99.7828 41.7416 99.4021 45.9295 97.8792C50.1173 96.3564 45.9295 93.3107 45.9295 86.8386C45.9295 80.3665 48.2137 81.5086 47.0716 76.5593C45.9295 71.6101 45.168 65.8994 40.9802 64.3765C36.7924 62.8537 28.7974 56.3816 34.8888 49.5287C40.9802 42.6759 45.5488 57.5237 51.6402 56.7623C57.7316 56.0009 63.823 51.4323 62.6808 47.2445C61.5387 43.0566 67.2494 51.0516 71.4372 42.2952C75.625 33.5388 79.4322 38.4881 84.3814 35.4424C89.3307 32.3967 90.0921 37.346 94.28 33.1581C98.4678 28.9703 91.9957 29.7317 98.0871 22.1175C104.178 14.5032 106.463 19.8332 109.508 14.5032C112.554 9.17325 110.651 6.88897 117.884 10.6961C125.118 14.5032 120.168 12.5997 127.021 10.6961C133.874 8.79252 135.778 6.88897 138.823 10.6961C141.869 14.5032 147.96 14.5032 154.052 14.5032C157.707 12.9804 156.59 17.6758 155.575 20.2139C154.813 22.1175 153.595 26.3053 154.813 27.8281C156.336 29.7317 157.478 34.681 157.478 37.7267C157.478 40.7724 159.382 36.9652 159.762 40.7724C160.143 44.5795 157.859 46.1023 160.905 46.4831C163.95 46.8638 157.478 51.4323 151.768 53.3359C153.29 57.5237 147.96 58.2851 147.96 61.3308C147.96 64.3765 141.108 66.6608 137.3 63.9958C133.493 61.3308 136.158 68.5644 130.448 68.5644C124.737 68.5644 126.26 73.8943 120.168 71.2294C114.077 68.5644 120.549 61.7115 113.696 62.473C106.843 63.2344 111.412 67.0415 108.747 67.4222C106.082 67.8029 105.701 69.7065 107.224 71.9908C108.747 74.2751 110.27 78.4629 109.889 81.5086C109.508 84.5543 112.935 83.0314 112.173 88.3614C111.412 93.6914 114.077 88.7421 117.884 93.6914C121.691 98.6407 122.072 89.1228 126.641 92.1685C131.209 95.2142 135.778 94.8335 135.778 98.6407C135.778 102.448 137.681 99.7828 138.443 101.686C139.204 103.59 136.92 107.397 138.443 107.397C139.965 107.397 141.108 104.351 143.011 105.493C144.915 106.636 147.96 105.113 149.864 107.397C151.768 109.681 146.057 107.778 147.96 111.204C149.864 114.631 152.529 109.301 155.194 109.681C157.859 110.062 157.098 111.204 160.143 111.204C163.189 111.204 158.62 113.108 162.047 113.869C165.473 114.631 162.808 111.585 165.473 112.727C168.138 113.869 171.184 112.727 171.945 114.631C172.707 116.534 165.854 119.961 169.661 125.291" stroke="#A3B6BE"/>
<path d="M153.285 14.8843C156.204 14.5035 161.813 11.3817 160.899 1.94004C165.468 -1.10568 167.372 4.22431 167.372 4.22431C167.372 4.22431 168.666 1.3309 170.798 1.94004C172.321 6.50857 167.372 16.7878 167.372 16.7878C167.118 18.1838 167.448 21.5848 170.798 24.0213C174.986 27.067 173.082 19.4528 176.509 24.0213C179.935 28.5899 176.128 28.9706 178.031 30.8742C179.935 32.7777 181.839 35.062 181.077 36.9656C180.316 38.8691 185.646 37.3463 187.549 40.0113C189.453 42.6763 192.118 41.5341 197.067 42.2955C202.016 43.057 197.829 46.4834 201.255 46.8641C204.681 47.2448 204.301 41.5341 208.869 44.1991C213.438 46.8641 206.966 47.2448 210.773 50.2905C214.58 53.3362 207.727 54.859 210.773 56.0012C213.818 57.1433 213.057 51.4326 215.722 53.7169C218.387 56.0012 221.052 56.7626 221.813 59.0469C222.575 61.3312 218.768 60.9504 221.052 62.854C223.336 64.7576 223.336 62.0926 225.621 62.0926C227.905 62.0926 227.143 65.8997 228.666 65.8997C229.885 65.8997 231.966 65.8997 232.854 65.8997C232.854 67.5495 233.615 70.849 236.661 70.849C240.468 70.849 237.042 66.6611 238.184 64.7576C239.326 62.854 239.707 65.1383 241.23 63.6154C242.753 62.0926 239.707 60.189 242.753 60.189C245.798 60.189 243.514 61.3312 245.037 62.0926C246.56 62.854 246.179 60.5697 248.083 61.3312C249.986 62.0926 248.844 64.3769 254.174 62.854C259.504 61.3312 260.265 58.2855 262.93 56.7626C265.595 55.2398 264.072 57.1433 267.499 56.0012C270.925 54.859 264.834 53.3362 267.499 51.4326C270.164 49.5291 272.829 54.0976 275.875 51.4326C278.92 48.7677 277.778 45.3412 280.062 44.9605C282.347 44.5798 280.443 48.7677 283.489 48.7677C286.535 48.7677 287.296 49.1484 289.2 52.5748C291.103 56.0012 293.007 54.4783 294.149 56.7626C295.291 59.0469 296.052 60.5697 292.626 62.0926C289.2 63.6154 291.103 67.4226 294.91 66.6611C298.717 65.8997 294.529 70.849 297.194 70.849C299.859 70.849 302.905 68.5647 304.428 71.6104C305.951 74.6561 304.047 78.0825 305.57 78.4632C307.093 78.8439 310.9 77.7018 311.281 80.7475C311.662 83.7932 307.474 87.2196 309.377 90.2653C311.281 93.311 308.997 92.9303 311.281 96.3567C313.565 99.7831 315.469 97.4988 316.23 99.7831C316.992 102.067 315.849 108.54 320.799 108.92C325.748 109.301 327.271 108.54 326.509 101.687C331.078 99.7831 328.032 103.59 331.459 103.59C334.885 103.59 331.839 98.641 334.124 97.4988C336.408 96.3567 336.408 99.7831 338.311 99.7831C340.215 99.7831 338.692 94.8339 341.738 94.8339C344.784 94.8339 347.068 97.8796 350.494 96.3567C353.921 94.8339 351.256 92.5496 353.54 91.4074C355.824 90.2653 361.535 93.6917 361.535 90.2653C361.535 86.8389 357.728 86.4582 359.631 84.5546C361.535 82.6511 363.438 87.2196 365.342 84.5546C367.246 81.8896 371.053 81.1282 371.053 85.6968C371.053 90.2653 368.007 89.8846 369.53 94.8339C371.053 99.7831 372.956 98.2603 372.956 101.687C372.956 105.113 367.246 104.732 365.342 108.92C363.438 113.108 360.393 111.585 361.535 115.012C362.677 118.438 358.87 116.534 359.631 121.484C360.393 126.433 363.438 126.814 366.484 124.149C369.53 121.484 369.911 117.296 372.956 117.677C375.393 117.981 375.748 120.342 375.621 121.484C377.271 120.976 380.799 120.798 381.713 124.149C382.855 128.337 376.383 125.291 379.048 129.479C381.713 133.667 382.855 129.479 385.139 133.286C387.423 137.093 389.327 132.524 390.469 135.57C391.611 138.616 387.043 136.332 386.662 140.139C386.281 143.946 382.855 142.804 381.713 146.23C380.57 149.656 384.758 156.129 383.235 158.413C381.713 160.697 378.286 162.981 388.565 162.981C398.845 162.981 399.987 166.027 399.987 171.357C399.987 176.687 396.56 175.545 397.703 178.591C398.845 181.636 404.936 181.256 405.698 183.921C406.307 186.053 406.967 188.108 407.22 188.87C404.682 190.139 398.159 192.296 392.373 190.773C385.139 188.87 388.565 193.438 383.235 193.438C377.906 193.438 375.621 190.012 375.241 198.388C374.86 206.763 381.713 204.098 379.428 208.286C377.144 212.474 377.906 208.286 371.814 208.286C365.723 208.286 367.626 210.951 360.012 210.951C352.398 210.951 347.449 209.048 343.261 213.235C339.073 217.423 345.545 217.804 341.738 220.85C337.931 223.895 335.266 217.043 331.078 220.85C326.89 224.657 334.124 226.941 329.174 232.271C324.225 237.601 324.986 231.129 316.611 234.555C308.235 237.982 307.854 240.647 301.763 234.555C295.672 228.464 299.479 230.367 297.956 224.657C296.433 218.946 302.144 217.043 297.956 216.281C293.768 215.52 288.819 215.139 289.2 210.951C289.58 206.763 292.245 206.002 292.245 201.433C292.245 196.865 290.342 199.53 289.2 195.723C288.057 191.916 288.819 185.063 283.489 183.921C278.159 182.778 279.301 182.778 274.732 178.971C270.164 175.164 272.829 174.022 267.88 172.88C262.93 171.738 262.93 169.073 261.788 165.646C260.646 162.22 260.265 166.027 256.839 167.169C253.413 168.311 256.078 162.981 250.748 162.981C245.418 162.981 249.986 168.311 245.418 168.311C240.849 168.311 241.61 162.981 237.423 162.981C233.235 162.981 234.377 158.413 231.331 150.799C228.286 143.184 222.956 145.469 222.956 141.661C222.956 137.854 218.387 141.281 214.199 135.951C210.849 131.687 200.874 134.174 196.306 135.951" stroke="#A3B6BE"/>
<path d="M48.2041 217.423C49.8539 218.184 52.5443 220.24 50.1077 222.372C47.062 225.037 41.732 222.372 45.9199 228.844C50.1077 235.316 50.1077 236.078 50.1077 240.266C50.1077 244.453 55.057 242.169 55.057 245.976C55.057 249.783 51.2499 250.926 60.7677 257.398C70.2855 263.87 60.0062 268.819 68.0012 276.053C75.9962 283.286 72.189 287.855 70.6662 290.9C69.1433 293.946 75.2347 292.423 74.854 296.992C74.4733 301.56 75.6155 304.606 82.849 301.941C90.0825 299.276 84.7525 303.464 90.4632 301.941C96.1739 300.418 90.4632 300.418 92.3668 296.992C94.2704 293.565 97.3161 301.18 98.0775 296.992C98.8389 292.804 93.1282 293.946 94.6511 290.9C96.1739 287.855 96.5546 289.378 99.2196 288.616C101.885 287.855 98.8389 282.144 101.123 281.763C102.951 281.459 103.407 284.682 103.407 286.332L105.311 284.428C105.819 285.697 107.671 287.474 111.022 284.428C115.21 280.621 114.448 289.758 115.971 284.428C117.494 279.098 108.737 277.956 111.022 274.149C112.849 271.103 107.976 261.712 105.311 257.398C101.758 253.337 94.6511 243.692 94.6511 237.601C94.6511 231.509 93.8896 227.956 93.5089 226.941" stroke="#A3B6BE"/>
<path d="M106.074 289.378C106.988 287.855 104.932 286.967 103.79 286.713L105.5 285C105.667 285.333 106.4 286 108 286C110 286 111 283 113 283.5C115 284 114.5 286 115 286C115.5 286 117.5 283 115 280.5C112.5 278 109.5 277 111 274C111.667 275.333 113.4 278 115 278C117 278 120.5 278 121.5 280C122.5 282 123 283.5 125.5 284C128 284.5 130 288.5 133 286.5C136 284.5 135 280.5 134 279.5C133 278.5 130 278 131 276C132 274 134 274.5 134.5 271.5C135 268.5 133 271 133.5 269C134 267 135 266 135 265C135 264 132 263.5 133.5 262C135 260.5 137.5 260.5 139 262C140.5 263.5 141 258.5 143 258.5C144.6 258.5 147.222 259.288 148.333 259.683C149.856 261.51 148.968 267.804 148.333 270.723C150.491 270.723 154.958 271.409 155.567 274.15C156.328 277.576 155.567 277.576 157.47 277.957C159.374 278.338 158.613 281.764 158.613 285.571C158.613 289.378 169.273 286.713 169.273 289.378C169.273 292.043 165.465 291.662 166.988 294.327C168.511 296.992 166.988 296.992 166.988 300.8C166.988 304.607 174.603 300.8 174.603 305.368C174.603 309.937 170.034 308.795 166.988 311.46C163.943 314.124 169.273 317.932 166.988 317.932C164.704 317.932 165.846 316.409 162.42 316.409C158.993 316.409 160.135 315.267 158.613 315.267C157.09 315.267 158.613 317.932 154.806 317.932C150.998 317.932 154.044 314.124 148.333 314.124C143.765 314.124 143.13 316.663 143.384 317.932H135.77C135.008 314.505 132.343 318.312 130.059 319.074C127.775 319.835 126.252 314.505 130.44 314.124C134.628 313.744 131.582 308.033 128.536 306.891C125.491 305.749 127.394 310.698 124.729 310.698C122.064 310.698 125.11 306.891 123.206 306.891C121.303 306.891 123.206 310.317 121.303 310.317C119.399 310.317 121.303 306.51 119.399 306.51C117.496 306.51 120.922 309.175 117.876 308.795C114.831 308.414 116.734 303.465 114.831 303.465C112.927 303.465 111.404 308.414 109.881 306.891C108.359 305.368 111.785 304.987 111.785 302.703C111.785 300.419 109.501 301.18 107.597 299.657C105.694 298.135 109.501 299.277 106.074 294.327C102.648 289.378 104.932 291.282 106.074 289.378Z" stroke="#A3B6BE"/>
<path d="M167.747 296.992C168.128 297.119 168.965 297.069 169.27 295.85C169.651 294.327 169.27 296.231 171.173 296.231C173.077 296.231 171.935 295.089 173.458 295.47C174.981 295.85 173.458 296.992 175.742 296.992C178.026 296.992 175.361 298.896 176.503 300.419C177.417 301.637 182.722 305.749 185.26 307.652C188.052 308.541 193.712 310.774 194.016 312.602C194.397 314.886 196.301 312.982 198.965 313.363C201.63 313.744 200.869 316.789 204.295 316.409C207.722 316.028 206.199 313.744 208.483 313.363C210.768 312.982 207.722 315.267 210.387 315.267C213.052 315.267 212.29 312.221 214.575 312.221C216.859 312.221 214.955 313.363 216.859 313.363C218.763 313.363 217.62 310.317 219.905 310.317C222.189 310.317 219.524 311.84 222.95 311.84C226.377 311.84 228.28 300.038 232.087 298.135C235.133 296.612 236.148 296.231 236.275 296.231" stroke="#A3B6BE"/>
<path d="M130.442 323.641C130.442 320.596 133.996 318.819 135.772 318.311H143.5C143.333 317.208 144 314.9 148 314.5C153 314 150 318.311 154 318.311C158 318.311 157 315.5 159 315.5C161 315.5 159 317 162 317C165 317 165 319.123 167.5 318.311C170 317.5 165.5 315.5 166.5 313.5C167.5 311.5 167.5 311 172 309.5C176.5 308 176 302.5 172 302.5C168 302.5 166.5 301 168 297.5C169 296.5 169.5 297 169.5 295.5C170 297 172.5 297.5 173 296C174 297 174 298 176 297.5C177 298.5 174 299.5 176 301C177.6 302.2 183.097 306.074 185.646 307.861C184.884 308.807 183.361 311.382 183.361 314.124C183.361 317.55 185.646 312.601 185.646 317.55C185.646 322.499 183.361 317.931 183.361 322.499C183.361 327.068 187.93 323.261 188.311 327.829C188.691 332.398 184.884 325.926 185.265 330.494C185.646 335.063 182.6 331.636 182.6 335.444C182.6 339.251 190.595 332.398 190.214 335.444C189.834 338.489 187.169 335.824 187.549 339.631C187.93 343.438 192.118 335.824 194.021 340.012C195.925 344.2 187.169 344.581 196.686 347.246C206.204 349.911 199.351 352.195 205.062 351.814C209.631 351.51 211.027 354.987 211.153 356.763C212.549 357.017 215.037 358.439 213.818 362.093C212.296 366.662 218.006 360.19 215.341 365.139C212.676 370.088 212.296 365.901 210.392 367.423C208.488 368.946 211.534 369.708 210.392 372.373C209.25 375.038 208.488 372.373 206.204 373.515C203.92 374.657 207.727 376.56 205.443 377.322C203.158 378.083 202.397 375.038 196.686 376.56C190.976 378.083 198.209 380.748 192.879 384.555C187.549 388.363 194.783 389.885 184.504 392.17C180.316 388.743 186.026 381.89 182.6 380.748C179.174 379.606 185.265 386.078 178.031 382.652C170.798 379.225 178.793 373.895 174.224 373.515C170.569 373.21 170.925 369.835 171.559 368.185C169.402 371.104 164.402 375.723 161.661 370.85C158.234 364.758 160.138 364.758 154.427 367.423C148.717 370.088 157.473 363.236 149.859 362.855C142.244 362.474 151.001 357.906 144.909 357.525C138.818 357.144 142.244 355.241 135.772 352.956C129.3 350.672 130.442 352.195 133.488 346.865C136.534 341.535 131.965 341.535 131.965 338.109C131.965 334.682 138.437 334.682 134.63 333.159C130.823 331.636 131.585 330.875 131.965 328.21C132.346 325.545 130.442 327.449 130.442 323.641Z" stroke="#A3B6BE"/>
<path d="M276.642 390.647C278.164 388.109 281.743 382.576 283.875 380.749C286.54 378.465 281.591 381.13 282.733 376.561C283.875 371.992 285.017 372.373 286.159 375.419C287.302 378.465 288.444 376.561 289.967 371.231C291.489 365.901 290.728 367.424 284.637 367.424C278.545 367.424 280.829 359.048 284.637 359.048C288.444 359.048 291.87 364.759 294.535 362.475C297.2 360.19 289.967 360.952 292.251 357.145C294.535 353.337 287.682 352.957 289.967 349.53C292.251 346.104 291.109 351.434 294.535 349.53C297.961 347.627 291.489 345.723 295.677 343.439C299.865 341.155 297.2 339.251 300.246 336.205C303.291 333.16 301.388 335.825 304.434 334.683C307.479 333.54 304.053 330.114 308.621 329.353C313.19 328.591 313.571 325.165 316.236 329.353C318.901 333.54 320.424 332.398 323.089 326.307C325.754 320.216 326.134 328.591 331.845 326.307C337.556 324.023 331.083 323.261 337.175 320.977C343.266 318.693 339.84 322.881 344.028 322.5C348.216 322.119 342.505 320.596 346.693 317.551C350.881 314.505 348.596 319.835 351.642 318.693C354.688 317.551 353.546 314.886 355.83 314.505C357.657 314.2 359.383 312.601 360.018 311.84" stroke="#A3B6BE"/>
<path d="M13.1828 181.354C8.61425 174.444 3.28427 188.648 1 181.354C5.82236 178.411 14.4772 171.296 10.5178 166.382C5.56855 160.239 6.71069 154.481 13.1828 151.793C19.6549 149.106 20.0356 157.552 29.5534 142.963C37.1677 131.293 44.1474 129.911 46.6855 130.678C48.0814 131.19 51.787 133.212 55.4419 137.205C60.0104 142.196 50.1119 151.793 59.249 151.793C68.3861 151.793 68.0054 159.855 71.0511 157.552C74.0968 155.248 76.0003 159.855 77.9039 159.855C79.8075 159.855 81.711 154.481 77.9039 151.793C74.0968 149.106 76.0003 145.267 77.9039 142.963C79.8075 140.66 76.0003 137.205 81.711 137.205C87.4217 137.205 88.9446 129.143 91.2288 135.669C93.5131 142.196 93.8938 142.963 97.701 142.963C101.508 142.963 101.889 147.186 103.412 149.106C104.934 151.025 109.503 154.481 113.691 154.481C117.879 154.481 115.594 159.087 124.732 159.855C133.869 160.623 136.534 167.917 141.864 168.685C147.194 169.453 143.386 164.846 148.716 166.382C154.046 167.917 153.285 165.23 155.569 163.694C157.854 162.159 156.331 159.855 156.331 157.552C156.331 155.248 159.376 154.481 157.473 154.481C155.95 154.481 156.838 152.689 157.473 151.793L156.331 149.106C157.346 149.49 159.376 149.643 159.376 147.186C159.376 144.729 156.584 142.068 155.189 141.044C156.584 140.916 159.376 139.969 159.376 137.205C159.376 133.75 159.376 132.982 161.28 132.214C162.803 131.6 163.183 129.911 163.183 129.143C166.991 126.711 174.757 122.309 175.366 124.152C175.975 125.995 173.843 127.735 172.701 128.375H176.128C175.874 130.294 176.052 133.75 178.793 132.214C182.219 130.294 182.219 135.669 188.311 132.214C193.184 129.45 195.163 131.062 195.544 132.214C196.686 132.47 198.285 133.826 195.544 137.205C192.118 141.428 194.021 142.196 194.021 145.267C194.021 148.338 190.214 147.954 190.214 150.258C190.214 152.561 192.118 151.793 191.737 154.481C191.356 157.168 189.833 153.713 190.214 157.552C190.595 161.391 194.021 159.471 194.021 162.927C194.021 166.382 187.93 164.462 186.407 166.382C184.884 168.301 186.788 169.453 184.884 172.524C183.361 174.981 184.25 179.179 184.884 180.97C184.123 180.074 181.991 178.82 179.554 180.97C177.118 183.12 178.031 186.729 178.793 188.264C175.493 188.776 167.904 189.8 163.945 189.8C158.996 189.8 163.183 184.809 159.376 184.809C155.569 184.809 156.711 192.487 151.762 192.487C146.813 192.487 146.432 188.648 143.386 189.8C140.341 190.952 140.721 194.407 142.625 199.014C144.529 203.621 143.767 215.906 140.721 217.057C137.676 218.209 135.772 215.138 132.346 212.834C128.919 210.531 125.493 215.522 122.828 217.057C120.163 218.593 123.97 219.361 121.686 220.897C119.402 222.432 119.782 220.897 117.879 220.897C115.975 220.897 109.884 227.807 107.98 227.807C106.077 227.807 106.457 229.726 103.412 229.726C100.366 229.726 104.554 227.807 101.889 227.807C99.2238 227.807 101.889 229.342 99.2238 229.726C96.5588 230.11 98.8431 227.807 93.8938 227.807C88.9446 227.807 94.6553 245.467 89.3253 243.547C83.9953 241.627 79.046 232.414 76.0003 227.807C72.9547 223.2 69.5282 229.726 64.1983 220.897C58.8683 212.067 53.919 218.209 48.2083 218.209C42.4977 218.209 43.2591 208.995 41.3555 202.853C39.452 196.71 32.9798 197.478 27.2692 195.175C21.5585 192.871 22.3199 190.184 20.0356 187.497C17.7513 184.809 17.7513 188.264 13.1828 181.354Z" stroke="#A3B6BE"/>
</g>
</g>
<defs>
<filter id="filter0_f" x="-4.59375" y="-4.5" width="460.095" height="457.803" filterUnits="userSpaceOnUse" color-interpolation-filters="sRGB">
<feFlood flood-opacity="0" result="BackgroundImageFix"/>
<feBlend mode="normal" in="SourceGraphic" in2="BackgroundImageFix" result="shape"/>
<feGaussianBlur stdDeviation="2.5" result="effect1_foregroundBlur"/>
</filter>
<clipPath id="clip0">
<rect width="451" height="449" fill="white"/>
</clipPath>
</defs>
</svg>
